<svg id="Capa_1" data-name="Capa 1" xmlns="http://www.w3.org/2000/svg" viewBox="0 0 600 800"><defs><style>.cls-1{fill:#d0cfcd;}.cls-2{fill:#004f87;}.cls-3{fill:#141f35;}.cls-4,.cls-5,.cls-7,.cls-8,.cls-9{fill:none;stroke-miterlimit:10;}.cls-4,.cls-5,.cls-7{stroke:#1b1e1f;}.cls-4{stroke-width:0.85px;}.cls-6{fill:#f7a00e;}.cls-7,.cls-8{stroke-width:0.5px;}.cls-8{stroke:#000;}.cls-9{stroke:#d0cfcd;stroke-width:0.4px;}.cls-10,.cls-16{font-size:22px;font-family:GillSansMT-Bold, Gill Sans MT;}.cls-10,.cls-16,.cls-19{fill:#1b1e1f;}.cls-11,.cls-12,.cls-13,.cls-16,.cls-19{font-weight:700;}.cls-12,.cls-13,.cls-14,.cls-18,.cls-19{font-size:14px;}.cls-12,.cls-18,.cls-19{font-family:Muli-Bold, Muli;}.cls-13{font-family:Muli-SemiBold, Muli;}.cls-14{font-family:Muli-Light, Muli;}.cls-15{letter-spacing:-0.04em;}.cls-17{letter-spacing:-0.06em;}</style></defs><title>cv</title><rect class="cls-1" y="6.5" width="600" height="793.5" transform="translate(600 806.5) rotate(180)"/><rect class="cls-2" y="781.27" width="600" height="9.85"/><rect class="cls-3" y="789" width="600" height="11"/><rect class="cls-3" width="600" height="41.5" transform="translate(600 41.5) rotate(180)"/><polyline class="cls-4" points="267.78 46.89 211.12 46.89 200.44 63.91"/><line class="cls-5" x1="600" y1="776.21" x2="49" y2="776.21"/><polygon class="cls-6" points="194.24 63.91 221.66 21.47 0 21.47 0 63.8 194.24 63.91"/><polygon class="cls-6" points="194.24 457.11 221.66 414.67 0 414.67 0 457 194.24 457.11"/><polygon class="cls-6" points="194.24 660.11 221.66 617.67 0 617.67 0 660 194.24 660.11"/><line class="cls-7" x1="600" y1="771.02" x2="193" y2="771.02"/><line class="cls-5" x1="43.94" y1="83.11" y2="83.11"/><line class="cls-8" x1="43.94" y1="79.91" x2="11.48" y2="79.91"/><line class="cls-5" x1="43.94" y1="307.25" y2="307.25"/><line class="cls-8" x1="43.94" y1="304.05" x2="11.48" y2="304.05"/><line class="cls-5" x1="43.94" y1="477" y2="477"/><line class="cls-8" x1="43.94" y1="473.8" x2="11.48" y2="473.8"/><line class="cls-5" x1="43.94" y1="549.66" y2="549.66"/><line class="cls-8" x1="43.94" y1="546.47" x2="11.48" y2="546.47"/><line class="cls-9" x1="469.94" y1="23.17" x2="489.93" y2="0.09"/><line class="cls-9" x1="479.94" y1="23.16" x2="499.94" y2="0.08"/><line class="cls-9" x1="489.95" y1="23.16" x2="509.94" y2="0.08"/><line class="cls-9" x1="499.96" y1="23.15" x2="519.95" y2="0.07"/><line class="cls-9" x1="509.96" y1="23.14" x2="529.96" y2="0.06"/><line class="cls-9" x1="519.97" y1="23.13" x2="539.96" y2="0.05"/><line class="cls-9" x1="529.97" y1="23.12" x2="549.97" y2="0.04"/><line class="cls-9" x1="539.98" y1="23.11" x2="559.97" y2="0.03"/><line class="cls-9" x1="549.99" y1="23.11" x2="569.98" y2="0.03"/><line class="cls-9" x1="559.99" y1="23.1" x2="579.99" y2="0.02"/><line class="cls-9" x1="570" y1="23.09" x2="589.99" y2="0.01"/><line class="cls-9" x1="580.01" y1="23.08" x2="600"/><text class="cls-10" transform="translate(27.71 50.78)"><tspan class="cls-11">EXPERIENCIA</tspan><tspan class="cls-12"><tspan x="26" y="36">ARQUITECTO</tspan></tspan><tspan class="cls-13"><tspan x="26" y="54">Dirección de Infraestructura Escolar -</tspan><tspan x="26" y="72">Ministerio de Educación de la Provincia de Corrientes</tspan></tspan><tspan class="cls-14"><tspan x="26" y="90">Febrero 2005 - Presente</tspan><tspan x="49" y="116">- Diseño y construcción de edificios para instituciones educativas.</tspan><tspan x="49" y="134">- Modelado 2D y 3D de planos de planta, usando AutoCad.</tspan><tspan x="49" y="152">- Desarrollo de modelos de información de construcción usando Revit</tspan><tspan x="49" y="170">- Revisar los proyectos, para asegurar que se sigan los códigos, estánda</tspan><tspan x="526.05" y="170">-</tspan><tspan x="49" y="188">res y procedimientos aplicables y que la calidad sea satisfactoria.</tspan><tspan x="49" y="206">- Preparar y proporcionar resúmenes de alto nivel para los altos directivos.</tspan><tspan x="49" y="224">- Gestión de un equipo de 5 arquitectos.</tspan></tspan><tspan class="cls-12"><tspan x="26" y="260">ARQUITECTO FREELANCE</tspan></tspan><tspan class="cls-14"><tspan x="26" y="278">Octubre 2004 - Actualidad</tspan><tspan x="49" y="304">- Proyecto, dirección y ejecución de obra en viviendas (unifamiliar, edificios </tspan><tspan x="49" y="322">e instalaciones públicas).</tspan><tspan x="49" y="340">- Preparar presupuestos para tarifas y contratos de construcción.</tspan></tspan></text><text class="cls-10" transform="translate(27.71 444.78)"><tspan class="cls-11">FORM<tspan class="cls-15" x="66.89" y="0">A</tspan><tspan x="83.19" y="0">CIÓN</tspan></tspan><tspan class="cls-12"><tspan x="26" y="36">ARQUITECTO</tspan></tspan><tspan class="cls-13"><tspan x="26" y="54">Universidad Nacional del Noreste (UNNE)</tspan></tspan><tspan class="cls-14"><tspan x="26" y="72">1998 - 2004</tspan></tspan><tspan class="cls-12"><tspan x="26" y="108">MASTER EN DISEÑO ARQUITECTÓNICO</tspan></tspan><tspan class="cls-13"><tspan x="26" y="126">Universidad Nacional del Noreste (UNNE)</tspan></tspan><tspan class="cls-14"><tspan x="26" y="144">2006 - 2008</tspan></tspan></text><text class="cls-16" transform="translate(27.71 647.74)">HABILI<tspan class="cls-17" x="79.05" y="0">D</tspan><tspan x="95.48" y="0">ADES</tspan><tspan class="cls-18"><tspan x="26" y="36">Responsabilidad</tspan><tspan x="26" y="54">Liderazgo</tspan><tspan x="26" y="72">Trabajo en equipo</tspan><tspan x="26" y="90">Gestión de proyectos</tspan><tspan x="26" y="108">Resolución de problemas</tspan></tspan></text><text class="cls-19" transform="translate(301.71 684.04)">SOFTWARE<tspan x="22" y="18">AutoCAD</tspan><tspan x="22" y="36">SketchUp</tspan><tspan x="22" y="54">Autodesk revit</tspan></text><polyline class="cls-4" points="269.83 440.09 213.16 440.09 202.48 457.11"/><polyline class="cls-4" points="269.53 643.09 212.86 643.09 202.18 660.11"/></svg>