<svg id="Capa_1" data-name="Capa 1" xmlns="http://www.w3.org/2000/svg" xmlns:xlink="http://www.w3.org/1999/xlink" viewBox="0 0 1535 611.57"><defs><style>.cls-1,.cls-10,.cls-13,.cls-14,.cls-21,.cls-7,.cls-8,.cls-9{fill:none;}.cls-2{clip-path:url(#clip-path);}.cls-3{clip-path:url(#clip-path-2);}.cls-4{clip-path:url(#clip-path-3);}.cls-5{font-size:8.44px;}.cls-11,.cls-12,.cls-15,.cls-16,.cls-5{font-family:ArialMT, Arial;}.cls-6{clip-path:url(#clip-path-4);}.cls-10,.cls-13,.cls-14,.cls-21,.cls-7,.cls-8,.cls-9{stroke:#000;stroke-miterlimit:10;}.cls-10,.cls-14,.cls-7,.cls-8,.cls-9{stroke-linecap:square;}.cls-7{stroke-width:1.4px;}.cls-13,.cls-8{stroke-width:0.6px;}.cls-9{stroke-width:0.9px;}.cls-10{stroke-width:0.3px;}.cls-11{font-size:28.14px;}.cls-12{font-size:5.63px;}.cls-13{stroke-linecap:round;}.cls-14,.cls-21{stroke-width:0;}.cls-15{font-size:11.26px;}.cls-16{font-size:9.01px;}.cls-17{clip-path:url(#clip-path-5);}.cls-18{clip-path:url(#clip-path-6);}.cls-19{clip-path:url(#clip-path-7);}.cls-20{clip-path:url(#clip-path-8);}.cls-22{clip-path:url(#clip-path-13);}.cls-23{fill:#d0cfcd;}</style><clipPath id="clip-path"><rect class="cls-1" y="8.95" width="1535" height="590.88"/></clipPath><clipPath id="clip-path-2"><rect class="cls-1" x="-364.83" y="-923.45" width="2393.19" height="1691.15"/></clipPath><clipPath id="clip-path-3"><polyline class="cls-1" points="1560.53 17.06 1560.53 -582.66 -9.54 -582.66 -9.54 17.06 1560.53 17.06"/></clipPath><clipPath id="clip-path-4"><polyline class="cls-1" points="1560.53 596.6 1560.53 17.63 -9.54 17.63 -9.54 596.6 1560.53 596.6"/></clipPath><clipPath id="clip-path-5"><polyline class="cls-1" points="2022.68 762.02 2022.68 -916.91 -357.15 -916.91 -357.15 762.02 2022.68 762.02"/></clipPath><clipPath id="clip-path-6"><rect class="cls-1" y="627.41" width="1535" height="590.88"/></clipPath><clipPath id="clip-path-7"><rect class="cls-1" x="-364.83" y="281.02" width="2393.19" height="1691.15"/></clipPath><clipPath id="clip-path-8"><polyline class="cls-1" points="1560.53 621.24 1560.53 362.02 -9.54 362.02 -9.54 621.24 1560.53 621.24"/></clipPath><clipPath id="clip-path-13"><polyline class="cls-1" points="2022.68 1966.48 2022.68 287.55 -357.15 287.55 -357.15 1966.48 2022.68 1966.48"/></clipPath></defs><title>inicio-obra-1</title><g class="cls-2"><g class="cls-3"><g class="cls-4"><text class="cls-5" transform="translate(1127.36 5.97) rotate(-90)">Desmontaje de</text><text class="cls-5" transform="translate(1147.26 6.83) rotate(-90)">manteniendo la</text><text class="cls-5" transform="translate(1023.05 9.1) rotate(-90)">chapa ondulada</text><text class="cls-5" transform="translate(1043.52 2) rotate(-90)">chapa 50x100</text></g><g class="cls-6"><line class="cls-7" x1="1198.14" y1="545.72" x2="147.35" y2="545.72"/><line class="cls-7" x1="1185.92" y1="533.5" x2="970.47" y2="533.5"/><line class="cls-7" x1="970.47" y1="531.51" x2="966.21" y2="531.51"/><line class="cls-7" x1="970.47" y1="493.14" x2="966.21" y2="493.14"/><line class="cls-7" x1="966.21" y1="533.5" x2="724.62" y2="533.5"/><line class="cls-7" x1="718.65" y1="533.5" x2="159.29" y2="533.5"/><line class="cls-7" x1="1185.92" y1="382.58" x2="1183.93" y2="382.58"/><line class="cls-7" x1="1149.53" y1="382.58" x2="1014.81" y2="382.58"/><line class="cls-7" x1="1198.14" y1="376.32" x2="1183.93" y2="376.32"/><line class="cls-7" x1="1149.53" y1="376.32" x2="1145.56" y2="376.32"/><line class="cls-7" x1="1139.59" y1="376.32" x2="1018.79" y2="376.32"/><line class="cls-7" x1="1139.59" y1="225.4" x2="994.63" y2="225.4"/><line class="cls-7" x1="990.37" y1="225.4" x2="837.45" y2="225.4"/><line class="cls-7" x1="966.21" y1="346.2" x2="837.45" y2="346.2"/><line class="cls-7" x1="825.23" y1="346.2" x2="762.99" y2="346.2"/><line class="cls-7" x1="1014.81" y1="314.08" x2="966.21" y2="314.08"/><line class="cls-7" x1="1018.79" y1="309.82" x2="994.63" y2="309.82"/><line class="cls-7" x1="990.37" y1="309.82" x2="966.21" y2="309.82"/><line class="cls-7" x1="966.21" y1="350.18" x2="885.77" y2="350.18"/><line class="cls-7" x1="966.21" y1="404.75" x2="885.77" y2="404.75"/><line class="cls-7" x1="966.21" y1="408.73" x2="879.8" y2="408.73"/><line class="cls-7" x1="1145.56" y1="213.18" x2="795.1" y2="213.18"/><line class="cls-7" x1="147.35" y1="545.72" x2="147.35" y2="47.47"/><polyline class="cls-7" points="159.29 533.5 159.29 53.73 1359.29 53.73"/><line class="cls-7" x1="147.35" y1="47.47" x2="1359.29" y2="47.47"/><line class="cls-8" x1="1278.57" y1="53.73" x2="1278.57" y2="64.53"/><line class="cls-8" x1="1278.57" y1="69.36" x2="1278.57" y2="79.02"/><line class="cls-8" x1="1278.57" y1="83.85" x2="1278.57" y2="93.52"/><line class="cls-8" x1="1278.57" y1="98.35" x2="1278.57" y2="107.73"/><line class="cls-8" x1="1278.57" y1="112.56" x2="1278.57" y2="122.23"/><line class="cls-8" x1="1278.57" y1="127.06" x2="1278.57" y2="136.72"/><line class="cls-8" x1="1278.57" y1="141.55" x2="1278.57" y2="150.93"/><line class="cls-8" x1="1278.57" y1="155.76" x2="1278.57" y2="165.43"/><line class="cls-8" x1="1278.57" y1="170.26" x2="1278.57" y2="179.92"/><line class="cls-8" x1="1278.57" y1="184.47" x2="1278.57" y2="194.13"/><line class="cls-8" x1="1278.57" y1="198.97" x2="1278.57" y2="208.63"/><line class="cls-8" x1="1278.57" y1="213.46" x2="1278.57" y2="223.13"/><line class="cls-8" x1="1278.57" y1="227.67" x2="1278.57" y2="237.34"/><line class="cls-8" x1="1278.57" y1="242.17" x2="1278.57" y2="251.83"/><line class="cls-8" x1="1278.57" y1="256.66" x2="1278.57" y2="266.04"/><line class="cls-8" x1="1278.57" y1="270.88" x2="1278.57" y2="280.54"/><line class="cls-8" x1="1278.57" y1="285.37" x2="1278.57" y2="295.04"/><line class="cls-8" x1="1278.57" y1="299.87" x2="1278.57" y2="309.25"/><line class="cls-8" x1="1278.57" y1="314.08" x2="1278.57" y2="323.74"/><line class="cls-8" x1="1278.57" y1="328.57" x2="1278.57" y2="338.24"/><line class="cls-8" x1="1278.57" y1="343.07" x2="1278.57" y2="352.45"/><line class="cls-8" x1="1278.57" y1="357.28" x2="1278.57" y2="368.37"/><line class="cls-7" x1="1198.14" y1="376.32" x2="1198.14" y2="533.5"/><line class="cls-7" x1="1198.14" y1="539.47" x2="1198.14" y2="545.72"/><line class="cls-7" x1="1145.56" y1="213.18" x2="1145.56" y2="376.32"/><line class="cls-7" x1="1139.59" y1="225.4" x2="1139.59" y2="376.32"/><line class="cls-7" x1="1018.79" y1="309.82" x2="1018.79" y2="344.21"/><line class="cls-7" x1="1018.79" y1="374.33" x2="1018.79" y2="376.32"/><line class="cls-7" x1="1014.81" y1="314.08" x2="1014.81" y2="344.21"/><line class="cls-7" x1="1014.81" y1="374.33" x2="1014.81" y2="382.58"/><line class="cls-7" x1="994.63" y1="225.4" x2="994.63" y2="309.82"/><line class="cls-7" x1="990.37" y1="225.4" x2="990.37" y2="309.82"/><line class="cls-7" x1="970.47" y1="344.21" x2="970.47" y2="352.17"/><line class="cls-7" x1="970.47" y1="378.31" x2="970.47" y2="493.14"/><line class="cls-7" x1="970.47" y1="531.51" x2="970.47" y2="533.5"/><line class="cls-7" x1="966.21" y1="309.82" x2="966.21" y2="314.08"/><line class="cls-7" x1="966.21" y1="350.18" x2="966.21" y2="352.17"/><line class="cls-7" x1="966.21" y1="378.31" x2="966.21" y2="404.75"/><line class="cls-7" x1="966.21" y1="408.73" x2="966.21" y2="493.14"/><line class="cls-7" x1="966.21" y1="531.51" x2="966.21" y2="533.5"/><line class="cls-7" x1="837.45" y1="225.4" x2="837.45" y2="346.2"/><line class="cls-7" x1="825.23" y1="219.15" x2="825.23" y2="346.2"/><line class="cls-7" x1="718.65" y1="219.15" x2="718.65" y2="243.31"/><line class="cls-7" x1="718.65" y1="322.04" x2="718.65" y2="346.2"/><line class="cls-8" x1="563.46" y1="221.14" x2="563.46" y2="226.25"/><line class="cls-8" x1="563.46" y1="231.08" x2="563.46" y2="240.46"/><line class="cls-8" x1="563.46" y1="245.3" x2="563.46" y2="254.96"/><line class="cls-8" x1="563.46" y1="259.79" x2="563.46" y2="269.46"/><line class="cls-8" x1="563.46" y1="274.29" x2="563.46" y2="283.67"/><line class="cls-8" x1="563.46" y1="288.5" x2="563.46" y2="298.16"/><line class="cls-8" x1="563.46" y1="302.99" x2="563.46" y2="312.66"/><line class="cls-8" x1="563.46" y1="317.49" x2="563.46" y2="326.87"/><line class="cls-8" x1="563.46" y1="331.7" x2="563.46" y2="341.36"/><line class="cls-8" x1="563.46" y1="346.2" x2="563.46" y2="355.86"/><line class="cls-8" x1="563.46" y1="360.41" x2="563.46" y2="370.07"/><line class="cls-8" x1="563.46" y1="374.9" x2="563.46" y2="384.57"/><line class="cls-8" x1="563.46" y1="389.4" x2="563.46" y2="398.78"/><line class="cls-8" x1="563.46" y1="403.61" x2="563.46" y2="408.73"/><line class="cls-7" x1="595.58" y1="213.18" x2="595.58" y2="408.73"/><line class="cls-7" x1="601.83" y1="219.15" x2="601.83" y2="408.73"/><line class="cls-7" x1="633.95" y1="346.2" x2="633.95" y2="402.47"/><line class="cls-7" x1="639.92" y1="352.17" x2="639.92" y2="402.47"/><line class="cls-7" x1="1185.92" y1="382.58" x2="1185.92" y2="533.5"/><line class="cls-7" x1="879.8" y1="352.17" x2="879.8" y2="408.73"/><line class="cls-7" x1="885.77" y1="350.18" x2="885.77" y2="404.75"/><polyline class="cls-9" points="966.21 378.31 966.21 377.75 967.91 377.75 967.91 377.18 970.47 377.75 970.47 378.31"/><polyline class="cls-9" points="966.21 352.17 966.21 353.02 967.91 353.02 967.91 353.3 970.47 353.02 970.47 352.17"/><polyline class="cls-9" points="966.21 353.02 941.76 353.02 941.76 354.72 966.21 354.72 966.21 353.02"/><path class="cls-10" d="M941.53,354.49a24.59,24.59,0,0,0,24.54,23"/><line class="cls-8" x1="1198.14" y1="376.32" x2="1202.97" y2="376.32"/><line class="cls-8" x1="1207.8" y1="376.32" x2="1217.46" y2="376.32"/><line class="cls-8" x1="1222.3" y1="376.32" x2="1231.96" y2="376.32"/><line class="cls-8" x1="1236.79" y1="376.32" x2="1246.17" y2="376.32"/><line class="cls-8" x1="1251" y1="376.32" x2="1260.67" y2="376.32"/><line class="cls-8" x1="1265.5" y1="376.32" x2="1270.62" y2="376.32"/><line class="cls-8" x1="1121.4" y1="213.18" x2="1121.4" y2="207.78"/><line class="cls-8" x1="1121.4" y1="202.95" x2="1121.4" y2="193.28"/><line class="cls-8" x1="1121.4" y1="188.73" x2="1121.4" y2="179.07"/><line class="cls-8" x1="1121.4" y1="174.24" x2="1121.4" y2="164.58"/><line class="cls-8" x1="1121.4" y1="159.74" x2="1121.4" y2="150.08"/><line class="cls-8" x1="1121.4" y1="145.53" x2="1121.4" y2="135.87"/><line class="cls-8" x1="1121.4" y1="131.04" x2="1121.4" y2="121.37"/><line class="cls-8" x1="1121.4" y1="116.54" x2="1121.4" y2="107.16"/><line class="cls-8" x1="1121.4" y1="102.33" x2="1121.4" y2="92.67"/><line class="cls-8" x1="1121.4" y1="87.83" x2="1121.4" y2="78.17"/><line class="cls-8" x1="1121.4" y1="73.34" x2="1121.4" y2="63.96"/><line class="cls-8" x1="1121.4" y1="59.13" x2="1121.4" y2="53.73"/><line class="cls-8" x1="867.58" y1="213.18" x2="867.58" y2="207.78"/><line class="cls-8" x1="867.58" y1="202.95" x2="867.58" y2="193.28"/><line class="cls-8" x1="867.58" y1="188.73" x2="867.58" y2="179.07"/><line class="cls-8" x1="867.58" y1="174.24" x2="867.58" y2="164.58"/><line class="cls-8" x1="867.58" y1="159.74" x2="867.58" y2="150.08"/><line class="cls-8" x1="867.58" y1="145.53" x2="867.58" y2="135.87"/><line class="cls-8" x1="867.58" y1="131.04" x2="867.58" y2="121.37"/><line class="cls-8" x1="867.58" y1="116.54" x2="867.58" y2="107.16"/><line class="cls-8" x1="867.58" y1="102.33" x2="867.58" y2="92.67"/><line class="cls-8" x1="867.58" y1="87.83" x2="867.58" y2="78.17"/><line class="cls-8" x1="867.58" y1="73.34" x2="867.58" y2="63.96"/><line class="cls-8" x1="867.58" y1="59.13" x2="867.58" y2="53.73"/><polyline class="cls-9" points="1183.07 382.58 1183.07 414.98 1181.37 414.98 1181.37 382.58 1183.07 382.58"/><polyline class="cls-9" points="1183.93 382.58 1183.07 382.58 1183.07 380.87 1182.79 380.87 1183.07 378.31 1183.93 378.31"/><polyline class="cls-9" points="1149.54 382.58 1150.39 382.58 1150.39 380.87 1150.96 380.87 1150.39 378.31 1149.54 378.31"/><path class="cls-10" d="M1150.39,382.44a32.55,32.55,0,0,0,30.94,32.5"/><line class="cls-7" x1="1183.93" y1="382.58" x2="1183.93" y2="376.32"/><line class="cls-7" x1="1149.53" y1="382.58" x2="1149.53" y2="376.32"/><polyline class="cls-9" points="1018.79 344.21 1018.79 345.06 1017.09 345.06 1017.09 345.34 1014.81 345.06 1014.81 344.21"/><polyline class="cls-9" points="1018.79 374.33 1018.79 373.48 1017.09 373.48 1017.09 373.2 1014.81 373.48 1014.81 374.33"/><polyline class="cls-9" points="1018.79 373.48 1047.21 373.48 1047.21 372.06 1018.79 372.06 1018.79 373.48"/><path class="cls-10" d="M1047.17,371.73a28.56,28.56,0,0,0-28.52-27"/><line class="cls-7" x1="1018.79" y1="374.33" x2="1014.81" y2="374.33"/><line class="cls-7" x1="1018.79" y1="344.21" x2="1014.81" y2="344.21"/><line class="cls-7" x1="966.21" y1="378.31" x2="970.47" y2="378.31"/><line class="cls-7" x1="966.21" y1="352.17" x2="970.47" y2="352.17"/><line class="cls-7" x1="966.21" y1="344.21" x2="966.21" y2="346.2"/><polyline class="cls-9" points="966.21 314.08 966.21 314.65 967.91 314.65 967.91 315.22 970.47 314.65 970.47 314.08"/><polyline class="cls-9" points="966.21 344.21 966.21 343.35 967.91 343.35 967.91 343.07 970.47 343.35 970.47 344.21"/><polyline class="cls-9" points="966.21 343.35 937.78 343.35 937.78 341.65 966.21 341.65 966.21 343.35"/><path class="cls-10" d="M966.07,314.65a28.56,28.56,0,0,0-28.52,27"/><line class="cls-7" x1="966.21" y1="344.21" x2="970.47" y2="344.21"/><polyline class="cls-7" points="1270.62 376.32 1278.57 376.32 1278.57 368.37 1270.62 368.37 1270.62 376.32"/><polyline class="cls-7" points="1270.62 61.69 1278.57 61.69 1278.57 53.73 1270.62 53.73 1270.62 61.69"/><polyline class="cls-7" points="1270.62 213.18 1278.57 213.18 1278.57 205.22 1270.62 205.22 1270.62 213.18"/><polyline class="cls-7" points="1121.4 61.69 1129.64 61.69 1129.64 53.73 1121.4 53.73 1121.4 61.69"/><polyline class="cls-7" points="1121.4 213.18 1129.64 213.18 1129.64 205.22 1121.4 205.22 1121.4 213.18"/><polyline class="cls-7" points="859.62 61.69 867.58 61.69 867.58 53.73 859.62 53.73 859.62 61.69"/><polyline class="cls-7" points="859.62 213.18 867.58 213.18 867.58 205.22 859.62 205.22 859.62 213.18"/><line class="cls-7" x1="764.98" y1="213.18" x2="754.74" y2="213.18"/><line class="cls-7" x1="764.98" y1="219.15" x2="762.99" y2="219.15"/><polyline class="cls-7" points="563.46 61.69 571.42 61.69 571.42 53.73 563.46 53.73 563.46 61.69"/><polyline class="cls-7" points="563.46 221.14 571.42 221.14 571.42 213.18 563.46 213.18 563.46 221.14"/><line class="cls-8" x1="563.46" y1="213.18" x2="563.46" y2="204.65"/><line class="cls-8" x1="563.46" y1="199.82" x2="563.46" y2="190.16"/><line class="cls-8" x1="563.46" y1="185.32" x2="563.46" y2="175.94"/><line class="cls-8" x1="563.46" y1="171.11" x2="563.46" y2="161.45"/><line class="cls-8" x1="563.46" y1="156.62" x2="563.46" y2="146.95"/><line class="cls-8" x1="563.46" y1="142.12" x2="563.46" y2="132.74"/><line class="cls-8" x1="563.46" y1="127.91" x2="563.46" y2="118.25"/><line class="cls-8" x1="563.46" y1="113.41" x2="563.46" y2="103.75"/><line class="cls-8" x1="563.46" y1="99.2" x2="563.46" y2="89.54"/><line class="cls-8" x1="563.46" y1="84.71" x2="563.46" y2="75.04"/><line class="cls-8" x1="563.46" y1="70.21" x2="563.46" y2="61.68"/><line class="cls-7" x1="595.58" y1="213.18" x2="724.62" y2="213.18"/><line class="cls-7" x1="601.83" y1="219.15" x2="718.65" y2="219.15"/><line class="cls-7" x1="718.65" y1="243.31" x2="724.62" y2="243.31"/><line class="cls-7" x1="754.74" y1="219.15" x2="756.73" y2="219.15"/><line class="cls-7" x1="718.65" y1="408.73" x2="631.96" y2="408.73"/><line class="cls-7" x1="601.83" y1="408.73" x2="595.58" y2="408.73"/><line class="cls-7" x1="724.62" y1="402.47" x2="639.92" y2="402.47"/><line class="cls-7" x1="633.95" y1="402.47" x2="631.96" y2="402.47"/><line class="cls-7" x1="724.62" y1="213.18" x2="724.62" y2="243.31"/><line class="cls-7" x1="724.62" y1="322.04" x2="724.62" y2="352.17"/><line class="cls-7" x1="724.62" y1="402.47" x2="724.62" y2="435.73"/><line class="cls-7" x1="724.62" y1="500.25" x2="724.62" y2="533.5"/><line class="cls-7" x1="756.73" y1="219.15" x2="756.73" y2="352.17"/><line class="cls-7" x1="762.99" y1="219.15" x2="762.99" y2="346.2"/><line class="cls-7" x1="718.65" y1="408.73" x2="718.65" y2="435.73"/><line class="cls-7" x1="718.65" y1="500.25" x2="718.65" y2="533.5"/><line class="cls-7" x1="718.65" y1="346.2" x2="633.95" y2="346.2"/><line class="cls-7" x1="724.62" y1="322.04" x2="718.65" y2="322.04"/><line class="cls-7" x1="879.8" y1="352.17" x2="756.73" y2="352.17"/><line class="cls-8" x1="879.8" y1="384.57" x2="869.29" y2="384.57"/><line class="cls-8" x1="864.45" y1="384.57" x2="854.79" y2="384.57"/><line class="cls-8" x1="850.24" y1="384.57" x2="840.58" y2="384.57"/><line class="cls-8" x1="835.75" y1="384.57" x2="826.08" y2="384.57"/><line class="cls-8" x1="821.25" y1="384.57" x2="811.87" y2="384.57"/><line class="cls-8" x1="807.04" y1="384.57" x2="797.38" y2="384.57"/><line class="cls-8" x1="792.55" y1="384.57" x2="782.88" y2="384.57"/><line class="cls-8" x1="778.05" y1="384.57" x2="768.67" y2="384.57"/><line class="cls-8" x1="763.84" y1="384.57" x2="754.17" y2="384.57"/><line class="cls-8" x1="749.34" y1="384.57" x2="739.68" y2="384.57"/><line class="cls-8" x1="734.85" y1="384.57" x2="724.62" y2="384.57"/><line class="cls-8" x1="595.58" y1="408.73" x2="589.04" y2="408.73"/><line class="cls-8" x1="584.21" y1="408.73" x2="574.83" y2="408.73"/><line class="cls-8" x1="570" y1="408.73" x2="563.46" y2="408.73"/><polyline class="cls-7" points="563.46 408.73 571.42 408.73 571.42 400.48 563.46 400.48 563.46 408.73"/><line class="cls-7" x1="724.62" y1="352.17" x2="639.92" y2="352.17"/><polyline class="cls-9" points="754.74 219.15 753.89 219.15 753.89 217.73 753.61 217.73 753.89 215.17 754.74 215.17"/><polyline class="cls-9" points="724.62 219.15 725.47 219.15 725.47 217.73 725.75 217.73 725.47 215.17 724.62 215.17"/><polyline class="cls-9" points="725.47 219.15 725.47 247.85 726.89 247.85 726.89 219.15 725.47 219.15"/><path class="cls-10" d="M726.94,247.52A28.56,28.56,0,0,0,753.89,219"/><line class="cls-7" x1="754.74" y1="219.15" x2="754.74" y2="213.18"/><line class="cls-10" x1="754.74" y1="213.18" x2="724.62" y2="213.18"/><line class="cls-7" x1="631.96" y1="402.47" x2="633.95" y2="402.47"/><polyline class="cls-9" points="631.96 402.47 631.1 402.47 631.1 404.18 630.82 404.18 631.1 406.74 631.96 406.74"/><polyline class="cls-9" points="601.83 402.47 602.4 402.47 602.4 404.18 602.97 404.18 602.4 406.74 601.83 406.74"/><polyline class="cls-9" points="602.4 402.47 602.4 374.05 604.1 374.05 604.1 402.47 602.4 402.47"/><path class="cls-10" d="M630.82,402.33a28.57,28.57,0,0,0-27-28.52"/><line class="cls-7" x1="631.96" y1="402.47" x2="631.96" y2="408.73"/><line class="cls-10" x1="631.96" y1="408.73" x2="601.83" y2="408.73"/><line class="cls-7" x1="718.65" y1="500.25" x2="724.62" y2="500.25"/><line class="cls-7" x1="718.65" y1="435.73" x2="724.62" y2="435.73"/><line class="cls-9" x1="718.65" y1="500.25" x2="718.65" y2="435.73"/><line class="cls-9" x1="720.64" y1="500.25" x2="720.64" y2="435.73"/><line class="cls-9" x1="724.62" y1="500.25" x2="724.62" y2="435.73"/><line class="cls-9" x1="722.63" y1="500.25" x2="722.63" y2="435.73"/><text class="cls-11" transform="translate(1386.01 520.71) rotate(-90)">PLANTA BAJA</text><text class="cls-11" transform="translate(1419.84 520.71) rotate(-90)">PROPUESTA</text><line class="cls-8" x1="1121.4" y1="213.18" x2="1112.3" y2="207.49"/><line class="cls-8" x1="1108.32" y1="204.94" x2="1100.08" y2="199.82"/><line class="cls-8" x1="1096.1" y1="197.26" x2="1087.86" y2="192.15"/><line class="cls-8" x1="1083.88" y1="189.59" x2="1075.64" y2="184.47"/><line class="cls-8" x1="1071.66" y1="181.91" x2="1063.7" y2="176.8"/><line class="cls-8" x1="1059.43" y1="174.24" x2="1051.48" y2="169.12"/><line class="cls-8" x1="1047.21" y1="166.56" x2="1039.25" y2="161.45"/><line class="cls-8" x1="1035.28" y1="158.89" x2="1027.03" y2="153.77"/><line class="cls-8" x1="1023.05" y1="151.22" x2="1014.81" y2="146.1"/><line class="cls-8" x1="1010.83" y1="143.54" x2="1002.59" y2="138.43"/><line class="cls-8" x1="998.61" y1="135.87" x2="990.37" y2="130.75"/><line class="cls-8" x1="986.39" y1="128.19" x2="978.43" y2="123.08"/><line class="cls-8" x1="974.17" y1="120.52" x2="966.21" y2="115.69"/><line class="cls-8" x1="961.94" y1="113.13" x2="953.99" y2="108.01"/><line class="cls-8" x1="949.72" y1="105.46" x2="941.76" y2="100.34"/><line class="cls-8" x1="937.79" y1="97.78" x2="929.54" y2="92.67"/><line class="cls-8" x1="925.56" y1="90.11" x2="917.32" y2="84.99"/><line class="cls-8" x1="913.34" y1="82.43" x2="905.1" y2="77.32"/><line class="cls-8" x1="901.12" y1="74.76" x2="892.88" y2="69.64"/><line class="cls-8" x1="888.9" y1="67.09" x2="880.94" y2="61.97"/><line class="cls-8" x1="876.68" y1="59.41" x2="867.58" y2="53.73"/><line class="cls-8" x1="867.58" y1="213.18" x2="876.68" y2="207.49"/><line class="cls-8" x1="880.94" y1="204.94" x2="888.9" y2="199.82"/><line class="cls-8" x1="892.88" y1="197.26" x2="901.12" y2="192.15"/><line class="cls-8" x1="905.1" y1="189.59" x2="913.34" y2="184.47"/><line class="cls-8" x1="917.32" y1="181.91" x2="925.56" y2="176.8"/><line class="cls-8" x1="929.54" y1="174.24" x2="937.79" y2="169.12"/><line class="cls-8" x1="941.76" y1="166.56" x2="949.72" y2="161.45"/><line class="cls-8" x1="953.99" y1="158.89" x2="961.94" y2="153.77"/><line class="cls-8" x1="966.21" y1="151.22" x2="974.17" y2="146.1"/><line class="cls-8" x1="978.43" y1="143.54" x2="986.39" y2="138.43"/><line class="cls-8" x1="990.37" y1="135.87" x2="998.61" y2="130.75"/><line class="cls-8" x1="1002.59" y1="128.19" x2="1010.83" y2="123.08"/><line class="cls-8" x1="1014.81" y1="120.52" x2="1023.05" y2="115.69"/><line class="cls-8" x1="1027.03" y1="113.13" x2="1035.28" y2="108.01"/><line class="cls-8" x1="1039.25" y1="105.46" x2="1047.21" y2="100.34"/><line class="cls-8" x1="1051.48" y1="97.78" x2="1059.43" y2="92.67"/><line class="cls-8" x1="1063.7" y1="90.11" x2="1071.66" y2="84.99"/><line class="cls-8" x1="1075.64" y1="82.43" x2="1083.88" y2="77.32"/><line class="cls-8" x1="1087.86" y1="74.76" x2="1096.1" y2="69.64"/><line class="cls-8" x1="1100.08" y1="67.09" x2="1108.32" y2="61.97"/><line class="cls-8" x1="1112.3" y1="59.41" x2="1121.4" y2="53.73"/><line class="cls-10" x1="1480.09" y1="53.73" x2="1480.09" y2="539.47"/><line class="cls-10" x1="1476.11" y1="53.73" x2="1476.11" y2="539.47"/><text class="cls-12" transform="translate(1419.55 46.33) rotate(180)">Línea Medianera</text><line class="cls-8" x1="1359.29" y1="53.73" x2="1370.95" y2="53.73"/><line class="cls-13" x1="1375.78" y1="53.73" x2="1375.78" y2="53.73"/><line class="cls-8" x1="1380.33" y1="53.73" x2="1389.99" y2="53.73"/><line class="cls-13" x1="1394.82" y1="53.73" x2="1394.82" y2="53.73"/><line class="cls-8" x1="1399.65" y1="53.73" x2="1409.32" y2="53.73"/><line class="cls-13" x1="1414.15" y1="53.73" x2="1414.15" y2="53.73"/><line class="cls-8" x1="1418.98" y1="53.73" x2="1428.36" y2="53.73"/><line class="cls-13" x1="1433.19" y1="53.73" x2="1433.19" y2="53.73"/><line class="cls-8" x1="1438.03" y1="53.73" x2="1447.69" y2="53.73"/><line class="cls-13" x1="1452.52" y1="53.73" x2="1452.52" y2="53.73"/><line class="cls-8" x1="1457.35" y1="53.73" x2="1466.73" y2="53.73"/><line class="cls-13" x1="1471.56" y1="53.73" x2="1471.56" y2="53.73"/><line class="cls-8" x1="1476.4" y1="53.73" x2="1488.05" y2="53.73"/><text class="cls-12" transform="translate(1366.68 38.94) rotate(-90)">Línea Municipal</text><text class="cls-5" transform="translate(1452.52 185.32) rotate(-90)">Vereda</text><text class="cls-5" transform="translate(1462.75 189.58) rotate(-90)">Municipal</text><path class="cls-10" d="M1456.64,258.65a3,3,0,1,0-3-3,3,3,0,0,0,3,3"/><line class="cls-10" x1="1449.96" y1="255.81" x2="1463.04" y2="255.81"/><line class="cls-10" x1="1456.78" y1="236.48" x2="1456.78" y2="261.5"/><path d="M1453.94,255.81l.29,1.42v-1.42Zm0,.85v-.85l.29,1.42Z"/><path class="cls-14" d="M1453.94,255.81l.29,1.42v-1.42Zm0,.85v-.85l.29,1.42Z"/><path d="M1454.23,255.81l.28,2v-2Zm0,1.42v-1.42l.28,2Z"/><path class="cls-14" d="M1454.23,255.81l.28,2v-2Zm0,1.42v-1.42l.28,2Z"/><path d="M1454.51,255.81l.28,2.28v-2.28Zm0,2v-2l.28,2.28Z"/><path class="cls-14" d="M1454.51,255.81l.28,2.28v-2.28Zm0,2v-2l.28,2.28Z"/><path d="M1454.79,255.81l.57,2.56v-2.56Zm0,2.28v-2.28l.57,2.56Z"/><path class="cls-14" d="M1454.79,255.81l.57,2.56v-2.56Zm0,2.28v-2.28l.57,2.56Z"/><path d="M1455.36,255.81l.57,2.84v-2.84Zm0,2.56v-2.56l.57,2.84Z"/><path class="cls-14" d="M1455.36,255.81l.57,2.84v-2.84Zm0,2.56v-2.56l.57,2.84Z"/><path d="M1455.93,255.81l.29,2.84v-2.84Zm0,2.84v-2.84l.29,2.84Z"/><path class="cls-14" d="M1455.93,255.81l.29,2.84v-2.84Zm0,2.84v-2.84l.29,2.84Z"/><path d="M1456.22,255.81l.56,2.84v-2.84Zm0,2.84v-2.84l.56,2.84Z"/><path class="cls-14" d="M1456.22,255.81l.56,2.84v-2.84Zm0,2.84v-2.84l.56,2.84Z"/><path d="M1456.78,252.69l.57,3.12v-3.12Zm0,3.12v-3.12l.57,3.12Z"/><path class="cls-14" d="M1456.78,252.69l.57,3.12v-3.12Zm0,3.12v-3.12l.57,3.12Z"/><path d="M1457.35,252.69l.57,3.12V253Zm0,3.12v-3.12l.57,3.12Z"/><path class="cls-14" d="M1457.35,252.69l.57,3.12V253Zm0,3.12v-3.12l.57,3.12Z"/><path d="M1457.92,253l.29,2.84V253Zm0,2.84V253l.29,2.84Z"/><path class="cls-14" d="M1457.92,253l.29,2.84V253Zm0,2.84V253l.29,2.84Z"/><path d="M1458.21,253l.56,2.84v-2.27Zm0,2.84V253l.56,2.84Z"/><path class="cls-14" d="M1458.21,253l.56,2.84v-2.27Zm0,2.84V253l.56,2.84Z"/><path d="M1458.77,253.54l.29,2.27v-2Zm0,2.27v-2.27l.29,2.27Z"/><path class="cls-14" d="M1458.77,253.54l.29,2.27v-2Zm0,2.27v-2.27l.29,2.27Z"/><path d="M1459.06,253.82l.28,2v-1.7Zm0,2v-2l.28,2Z"/><path class="cls-14" d="M1459.06,253.82l.28,2v-1.7Zm0,2v-2l.28,2Z"/><path d="M1459.34,254.11l.29,1.7v-1.13Zm0,1.7v-1.7l.29,1.7Z"/><path class="cls-14" d="M1459.34,254.11l.29,1.7v-1.13Zm0,1.7v-1.7l.29,1.7Z"/><path d="M1459.91,255.81v-.57l-.28-.56Zm0,0h0v0Z"/><path class="cls-14" d="M1459.91,255.81v-.57l-.28-.56Zm0,0h0v0Z"/><polygon points="1459.63 254.68 1459.63 255.81 1459.91 255.81 1459.63 254.68"/><polygon class="cls-14" points="1459.63 254.68 1459.63 255.81 1459.91 255.81 1459.63 254.68"/><text class="cls-12" transform="translate(1455.65 251.83) rotate(-90)">+/-0,00</text><text class="cls-12" transform="translate(1419.55 543.16) rotate(180)">Línea Medianera</text><line class="cls-8" x1="1359.29" y1="539.47" x2="1370.95" y2="539.47"/><line class="cls-13" x1="1375.78" y1="539.47" x2="1375.78" y2="539.47"/><line class="cls-8" x1="1380.33" y1="539.47" x2="1389.99" y2="539.47"/><line class="cls-13" x1="1394.82" y1="539.47" x2="1394.82" y2="539.47"/><line class="cls-8" x1="1399.65" y1="539.47" x2="1409.32" y2="539.47"/><line class="cls-13" x1="1414.15" y1="539.47" x2="1414.15" y2="539.47"/><line class="cls-8" x1="1418.98" y1="539.47" x2="1428.36" y2="539.47"/><line class="cls-13" x1="1433.19" y1="539.47" x2="1433.19" y2="539.47"/><line class="cls-8" x1="1438.03" y1="539.47" x2="1447.69" y2="539.47"/><line class="cls-13" x1="1452.52" y1="539.47" x2="1452.52" y2="539.47"/><line class="cls-8" x1="1457.35" y1="539.47" x2="1466.73" y2="539.47"/><line class="cls-13" x1="1471.56" y1="539.47" x2="1471.56" y2="539.47"/><line class="cls-8" x1="1476.4" y1="539.47" x2="1488.05" y2="539.47"/><text class="cls-12" transform="translate(1366.68 593.76) rotate(-90)">Línea Municipal</text><text class="cls-12" transform="translate(129.44 543.16) rotate(180)">Línea Medianera</text><line class="cls-8" x1="147.35" y1="539.47" x2="135.41" y2="539.47"/><line class="cls-13" x1="130.58" y1="539.47" x2="130.58" y2="539.47"/><line class="cls-8" x1="126.03" y1="539.47" x2="116.37" y2="539.47"/><line class="cls-13" x1="111.54" y1="539.47" x2="111.54" y2="539.47"/><line class="cls-8" x1="106.71" y1="539.47" x2="97.04" y2="539.47"/><line class="cls-13" x1="92.21" y1="539.47" x2="92.21" y2="539.47"/><line class="cls-8" x1="87.66" y1="539.47" x2="78" y2="539.47"/><line class="cls-13" x1="73.17" y1="539.47" x2="73.17" y2="539.47"/><line class="cls-8" x1="68.33" y1="539.47" x2="58.67" y2="539.47"/><line class="cls-13" x1="53.84" y1="539.47" x2="53.84" y2="539.47"/><line class="cls-8" x1="49.29" y1="539.47" x2="39.63" y2="539.47"/><line class="cls-13" x1="34.8" y1="539.47" x2="34.8" y2="539.47"/><line class="cls-8" x1="29.96" y1="539.47" x2="18.31" y2="539.47"/><line class="cls-7" x1="795.1" y1="219.15" x2="825.23" y2="219.15"/><line class="cls-7" x1="764.98" y1="213.18" x2="764.98" y2="219.15"/><polyline class="cls-9" points="795.1 219.15 794.25 219.15 794.25 217.73 793.97 217.73 794.25 215.17 795.1 215.17"/><polyline class="cls-9" points="764.98 219.15 765.54 219.15 765.54 217.73 766.11 217.73 765.54 215.17 764.98 215.17"/><polyline class="cls-9" points="765.54 219.15 765.54 247.85 767.25 247.85 767.25 219.15 765.54 219.15"/><path class="cls-10" d="M767,247.52A28.56,28.56,0,0,0,794,219"/><line class="cls-7" x1="795.1" y1="219.15" x2="795.1" y2="213.18"/><line class="cls-10" x1="795.1" y1="213.18" x2="764.98" y2="213.18"/><text class="cls-15" transform="translate(796.52 304.98) rotate(-90)">Depósito</text><polyline class="cls-8" points="879.8 376.32 782.88 376.32 782.88 352.17"/><path class="cls-8" d="M855.08,370.78a1.57,1.57,0,1,0-1.57,1.57,1.56,1.56,0,0,0,1.57-1.57"/><line class="cls-8" x1="851.95" y1="369.22" x2="849.96" y2="366.95"/><line class="cls-8" x1="855.08" y1="369.5" x2="857.63" y2="367.23"/><line class="cls-8" x1="855.08" y1="372.63" x2="857.35" y2="374.9"/><line class="cls-8" x1="851.95" y1="372.35" x2="849.67" y2="374.62"/><path class="cls-8" d="M857.35,370.78a3.84,3.84,0,1,0-3.84,3.84,3.83,3.83,0,0,0,3.84-3.84"/><path class="cls-8" d="M869.29,370.78a3.84,3.84,0,1,0-3.84,3.84,3.83,3.83,0,0,0,3.84-3.84"/><line class="cls-8" x1="867.3" y1="372.35" x2="869.57" y2="374.62"/><line class="cls-8" x1="864.17" y1="372.63" x2="861.9" y2="374.9"/><line class="cls-8" x1="863.89" y1="369.5" x2="861.61" y2="367.23"/><line class="cls-8" x1="867.01" y1="369.22" x2="869.29" y2="366.95"/><path class="cls-8" d="M867,370.78a1.56,1.56,0,1,0-1.56,1.57,1.56,1.56,0,0,0,1.56-1.57"/><path class="cls-8" d="M867,359.7a1.56,1.56,0,1,0-1.56,1.56A1.56,1.56,0,0,0,867,359.7"/><line class="cls-8" x1="867.01" y1="361.54" x2="869.29" y2="363.82"/><line class="cls-8" x1="863.89" y1="361.26" x2="861.61" y2="363.53"/><line class="cls-8" x1="864.17" y1="358.13" x2="861.9" y2="355.86"/><line class="cls-8" x1="867.3" y1="358.42" x2="869.57" y2="356.14"/><path class="cls-8" d="M869.29,359.7a3.84,3.84,0,1,0-3.84,3.83,3.84,3.84,0,0,0,3.84-3.83"/><line class="cls-8" x1="871.56" y1="354.15" x2="847.4" y2="354.15"/><polyline class="cls-8" points="871.56 352.17 871.56 376.32 847.4 376.32 847.4 352.17 871.56 352.17"/><path class="cls-8" d="M855.08,359.7a1.57,1.57,0,1,0-1.57,1.56,1.57,1.57,0,0,0,1.57-1.56"/><line class="cls-8" x1="855.08" y1="361.54" x2="857.35" y2="363.82"/><line class="cls-8" x1="851.95" y1="361.26" x2="849.67" y2="363.53"/><line class="cls-8" x1="851.95" y1="358.13" x2="849.96" y2="355.86"/><line class="cls-8" x1="855.08" y1="358.42" x2="857.63" y2="356.14"/><path class="cls-8" d="M857.35,359.7a3.84,3.84,0,1,0-3.84,3.83,3.84,3.84,0,0,0,3.84-3.83"/><path class="cls-8" d="M821,354.58a.71.71,0,1,0-.71.71.71.71,0,0,0,.71-.71"/><path class="cls-8" d="M826.94,354.58a.71.71,0,1,0-.71.71.71.71,0,0,0,.71-.71"/><path class="cls-8" d="M831.2,364a1.28,1.28,0,1,0-1.28,1.28A1.28,1.28,0,0,0,831.2,364"/><path class="cls-8" d="M817,364a.71.71,0,1,0-.71.71A.71.71,0,0,0,817,364"/><path class="cls-8" d="M811.16,355.58a1.28,1.28,0,0,0-1.28,1.27"/><path class="cls-8" d="M809.88,371.07a1.29,1.29,0,0,0,1.28,1.28"/><path class="cls-8" d="M821.39,372.35a1.28,1.28,0,0,0,1.28-1.28"/><path class="cls-8" d="M822.67,356.85a1.27,1.27,0,0,0-1.28-1.27"/><path class="cls-8" d="M825.09,355.58a1.27,1.27,0,0,0-1.28,1.27"/><path class="cls-8" d="M823.81,371.07a1.28,1.28,0,0,0,1.28,1.28"/><path class="cls-8" d="M835,372.35a1.29,1.29,0,0,0,1.28-1.28"/><path class="cls-8" d="M836.32,356.85a1.28,1.28,0,0,0-1.28-1.27"/><line class="cls-8" x1="821.54" y1="372.35" x2="811.3" y2="372.35"/><line class="cls-8" x1="821.54" y1="355.86" x2="811.3" y2="355.86"/><line class="cls-8" x1="823.81" y1="357" x2="823.81" y2="371.21"/><line class="cls-8" x1="822.67" y1="357" x2="822.67" y2="371.21"/><line class="cls-8" x1="836.32" y1="357" x2="836.32" y2="371.21"/><line class="cls-8" x1="810.17" y1="357" x2="810.17" y2="371.21"/><line class="cls-8" x1="835.18" y1="355.86" x2="825.23" y2="355.86"/><line class="cls-8" x1="835.18" y1="372.35" x2="825.23" y2="372.35"/><path class="cls-8" d="M830.92,364a1,1,0,1,0-1,1,1,1,0,0,0,1-1"/><line class="cls-9" x1="757.59" y1="372.35" x2="781.74" y2="372.35"/><line class="cls-9" x1="781.74" y1="354.15" x2="781.74" y2="376.32"/><polyline class="cls-9" points="781.75 354.15 757.59 354.15 757.59 376.32 781.75 376.32"/><polyline class="cls-9" points="758.72 354.15 761.57 352.17 769.81 352.17 778.05 352.17 780.89 354.15"/><polyline class="cls-9" points="776.06 376.32 776.06 377.18 779.19 377.18 779.19 376.32 776.06 376.32"/><line class="cls-9" x1="757.59" y1="372.63" x2="781.74" y2="372.63"/><line class="cls-8" x1="724.62" y1="352.17" x2="724.62" y2="358.7"/><line class="cls-8" x1="724.62" y1="363.53" x2="724.62" y2="373.2"/><line class="cls-8" x1="724.62" y1="378.03" x2="724.62" y2="384.57"/><line class="cls-8" x1="756.73" y1="352.17" x2="750.2" y2="352.17"/><line class="cls-8" x1="745.36" y1="352.17" x2="735.98" y2="352.17"/><line class="cls-8" x1="731.15" y1="352.17" x2="724.62" y2="352.17"/><text class="cls-5" transform="translate(761.56 474.1) rotate(-90)">Demolición de</text><text class="cls-5" transform="translate(771.51 486.32) rotate(-90)">escalera de HºAº,</text><text class="cls-5" transform="translate(781.75 484.05) rotate(-90)">Cajón de durlock</text><polygon points="748.49 384.85 746.78 377.18 751.05 384 748.49 384.85"/><polygon class="cls-14" points="748.49 384.85 746.78 377.18 751.05 384 748.49 384.85"/><polyline class="cls-10" points="749.91 384.57 762.99 416.4 762.99 463.3"/><line class="cls-7" x1="1359.29" y1="53.73" x2="1359.29" y2="47.47"/><line class="cls-8" x1="1359.29" y1="47.47" x2="1359.29" y2="41.79"/><line class="cls-13" x1="1359.29" y1="36.96" x2="1359.29" y2="36.96"/><line class="cls-8" x1="1359.29" y1="32.41" x2="1359.29" y2="22.75"/><line class="cls-13" x1="1359.29" y1="17.91" x2="1359.29" y2="17.91"/><line class="cls-8" x1="1359.29" y1="539.47" x2="1359.29" y2="546.58"/><line class="cls-13" x1="1359.29" y1="551.41" x2="1359.29" y2="551.41"/><line class="cls-8" x1="1359.29" y1="556.24" x2="1359.29" y2="565.9"/><line class="cls-13" x1="1359.29" y1="570.45" x2="1359.29" y2="570.45"/><line class="cls-8" x1="1359.29" y1="575.28" x2="1359.29" y2="584.95"/><line class="cls-13" x1="1359.29" y1="589.78" x2="1359.29" y2="589.78"/><line class="cls-8" x1="1359.29" y1="594.61" x2="1359.29" y2="596.6"/><line class="cls-7" x1="1359.29" y1="539.47" x2="1198.14" y2="539.47"/><line class="cls-7" x1="1353.04" y1="533.5" x2="1198.14" y2="533.5"/><line class="cls-7" x1="1359.29" y1="368.37" x2="1359.29" y2="539.47"/><line class="cls-7" x1="1353.04" y1="368.37" x2="1353.04" y2="533.5"/><line class="cls-9" x1="1359.29" y1="368.37" x2="1359.29" y2="210.9"/><line class="cls-9" x1="1357.02" y1="368.37" x2="1357.02" y2="53.73"/><polyline class="cls-9" points="1359.29 210.9 1355.03 210.9 1355.03 53.73"/><line class="cls-7" x1="1359.29" y1="368.37" x2="1353.04" y2="368.37"/><text class="cls-5" transform="translate(1237.08 486.32) rotate(-90)">Mampostería</text><text class="cls-5" transform="translate(1247.31 486.04) rotate(-90)">de ladrillos</text><text class="cls-5" transform="translate(1257.26 486.04) rotate(-90)">comunes</text><text class="cls-5" transform="translate(1267.49 486.32) rotate(-90)">H=2,80</text><polygon points="1260.1 528.1 1262.66 536.06 1257.83 529.52 1260.1 528.1"/><polygon class="cls-14" points="1260.1 528.1 1262.66 536.06 1257.83 529.52 1260.1 528.1"/><polyline class="cls-10" points="1258.96 528.96 1238.78 490.3 1238.78 443.4"/><text class="cls-5" transform="translate(1297.33 468.13) rotate(-90)">Mampostería</text><text class="cls-5" transform="translate(1307.57 467.84) rotate(-90)">de ladrillos</text><text class="cls-5" transform="translate(1317.51 467.84) rotate(-90)">comunes</text><text class="cls-5" transform="translate(1327.46 468.13) rotate(-90)">H=2,80</text><polygon points="1348.49 489.73 1355.32 494 1347.36 492.29 1348.49 489.73"/><polygon class="cls-14" points="1348.49 489.73 1355.32 494 1347.36 492.29 1348.49 489.73"/><polyline class="cls-10" points="1347.92 490.87 1299.04 472.11 1299.04 425.21"/><line class="cls-10" x1="1344.51" y1="533.5" x2="1338.83" y2="533.5"/><line class="cls-10" x1="1345.08" y1="368.37" x2="1338.83" y2="368.37"/><line class="cls-10" x1="1342.81" y1="530.66" x2="1342.81" y2="371.21"/><path d="M1342.81,533.5h1.42l-.57-.85Zm.85,1.14-.85-1.14h1.42Zm-.85.28.85-.28-.85-1.14Z"/><path class="cls-14" d="M1342.81,533.5h1.42l-.57-.85Zm.85,1.14-.85-1.14h1.42Zm-.85.28.85-.28-.85-1.14Z"/><path d="M1342.81,533.5l-1.14-.85-.28.85Zm0-1.42v1.42l-1.14-.85Zm.85.57-.85-.57v1.42Z"/><path class="cls-14" d="M1342.81,533.5l-1.14-.85-.28.85Zm0-1.42v1.42l-1.14-.85Zm.85.57-.85-.57v1.42Z"/><path d="M1341.67,534.64l1.14-1.14v1.42Zm-.28-1.14.28,1.14,1.14-1.14Z"/><path class="cls-14" d="M1341.67,534.64l1.14-1.14v1.42Zm-.28-1.14.28,1.14,1.14-1.14Z"/><line class="cls-10" x1="1342.81" y1="532.08" x2="1342.81" y2="530.66"/><path d="M1342.81,368.37h-1.42l.28.85Zm-1.14-1.14,1.14,1.14h-1.42Zm1.14-.28-1.14.28,1.14,1.14Z"/><path class="cls-14" d="M1342.81,368.37h-1.42l.28.85Zm-1.14-1.14,1.14,1.14h-1.42Zm1.14-.28-1.14.28,1.14,1.14Z"/><path d="M1342.81,368.37l.85.85.57-.85Zm0,1.42v-1.42l.85.85Zm-1.14-.57,1.14.57v-1.42Z"/><path class="cls-14" d="M1342.81,368.37l.85.85.57-.85Zm0,1.42v-1.42l.85.85Zm-1.14-.57,1.14.57v-1.42Z"/><path d="M1343.66,367.23l-.85,1.14V367Zm.57,1.14-.57-1.14-.85,1.14Z"/><path class="cls-14" d="M1343.66,367.23l-.85,1.14V367Zm.57,1.14-.57-1.14-.85,1.14Z"/><line class="cls-10" x1="1342.81" y1="369.79" x2="1342.81" y2="371.21"/><text class="cls-16" transform="translate(1341.39 459.6) rotate(-90)">4,10</text><line class="cls-10" x1="1353.04" y1="525.54" x2="1353.04" y2="509.34"/><line class="cls-10" x1="1198.14" y1="525.54" x2="1198.14" y2="509.34"/><line class="cls-10" x1="1350.2" y1="513.32" x2="1200.7" y2="513.32"/><path d="M1353,513.32V511.9l-.85.57Zm1.14-.85-1.14.85V511.9Zm.28.85-.28-.85-1.14.85Z"/><path class="cls-14" d="M1353,513.32V511.9l-.85.57Zm1.14-.85-1.14.85V511.9Zm.28.85-.28-.85-1.14.85Z"/><path d="M1353,513.32l-.85,1.14.85.28Zm-1.42,0H1353l-.85,1.14Zm.57-.85-.57.85H1353Z"/><path class="cls-14" d="M1353,513.32l-.85,1.14.85.28Zm-1.42,0H1353l-.85,1.14Zm.57-.85-.57.85H1353Z"/><path d="M1354.18,514.46l-1.14-1.14h1.42Zm-1.14.28,1.14-.28-1.14-1.14Z"/><path class="cls-14" d="M1354.18,514.46l-1.14-1.14h1.42Zm-1.14.28,1.14-.28-1.14-1.14Z"/><line class="cls-10" x1="1351.62" y1="513.32" x2="1350.2" y2="513.32"/><path d="M1198.14,513.32v1.42l.85-.28Zm-1.14,1.14,1.14-1.14v1.42Zm-.28-1.14.28,1.14,1.14-1.14Z"/><path class="cls-14" d="M1198.14,513.32v1.42l.85-.28Zm-1.14,1.14,1.14-1.14v1.42Zm-.28-1.14.28,1.14,1.14-1.14Z"/><path d="M1198.14,513.32l.85-.85-.85-.57Zm1.42,0h-1.42l.85-.85Zm-.57,1.14.57-1.14h-1.42Z"/><path class="cls-14" d="M1198.14,513.32l.85-.85-.85-.57Zm1.42,0h-1.42l.85-.85Zm-.57,1.14.57-1.14h-1.42Z"/><path d="M1197,512.47l1.14.85h-1.42Zm1.14-.57-1.14.57,1.14.85Z"/><path class="cls-14" d="M1197,512.47l1.14.85h-1.42Zm1.14-.57-1.14.57,1.14.85Z"/><line class="cls-10" x1="1199.56" y1="513.32" x2="1200.7" y2="513.32"/><text class="cls-16" transform="translate(1284.26 514.74) rotate(180)">3,85</text></g><g class="cls-17"><polyline class="cls-7" points="1767.44 -842.73 1767.44 607.4 -282.97 607.4 -282.97 -842.73 1767.44 -842.73"/></g></g></g><g class="cls-18"><g class="cls-19"><g class="cls-20"><line class="cls-7" x1="1255.27" y1="369.13" x2="-9.54" y2="369.13"/><line class="cls-8" x1="1174.83" y1="433.65" x2="1013.67" y2="433.65"/><line class="cls-7" x1="1013.67" y1="526.59" x2="1013.67" y2="369.13"/><line class="cls-8" x1="1174.83" y1="433.65" x2="1174.83" y2="369.13"/><line class="cls-7" x1="1001.45" y1="528.86" x2="1001.45" y2="369.13"/><line class="cls-7" x1="786.01" y1="563.54" x2="786.01" y2="369.13"/><line class="cls-7" x1="782.03" y1="562.68" x2="782.03" y2="369.13"/><line class="cls-7" x1="540.15" y1="510.1" x2="540.15" y2="369.13"/><line class="cls-7" x1="534.18" y1="508.68" x2="534.18" y2="369.13"/><polyline class="cls-7" points="1015.66 526.3 801.07 566.66 521.96 506.12"/><polyline class="cls-9" points="1001.45 499.87 801.07 559.84 628.83 508.11 540.15 494.75"/></g><g class="cls-20"><text class="cls-5" transform="translate(1013.67 603.33) rotate(180)">Cubierta nueva</text></g><g class="cls-20"><text class="cls-5" transform="translate(1014.53 593.1) rotate(180)">de chapa sobre</text><text class="cls-5" transform="translate(994.06 583.15) rotate(180)">estructura</text><text class="cls-5" transform="translate(987.81 572.92) rotate(180)">metalica</text><polygon points="908.79 554.16 904.53 547.05 910.78 552.45 908.79 554.16"/><polygon class="cls-21" points="908.79 554.16 904.53 547.05 910.78 552.45 908.79 554.16"/><polyline class="cls-10" points="909.93 553.3 952.28 601.62 999.18 601.62"/><line class="cls-10" x1="1009.41" y1="530.28" x2="1034.14" y2="530.28"/><line class="cls-10" x1="1166.59" y1="369.13" x2="1026.18" y2="369.13"/><line class="cls-10" x1="1030.16" y1="527.44" x2="1030.16" y2="371.97"/><path d="M1030.16,530.28h1.42l-.28-.85Zm1.14,1.14-1.14-1.14h1.42Zm-1.14.28,1.14-.28-1.14-1.14Z"/><path class="cls-14" d="M1030.16,530.28h1.42l-.28-.85Zm1.14,1.14-1.14-1.14h1.42Zm-1.14.28,1.14-.28-1.14-1.14Z"/><path d="M1030.16,530.28l-.85-.85-.57.85Zm0-1.42v1.42l-.85-.85Zm1.14.57-1.14-.57v1.42Z"/><path class="cls-14" d="M1030.16,530.28l-.85-.85-.57.85Zm0-1.42v1.42l-.85-.85Zm1.14.57-1.14-.57v1.42Z"/><path d="M1029.31,531.42l.85-1.14v1.42Zm-.57-1.14.57,1.14.85-1.14Z"/><path class="cls-14" d="M1029.31,531.42l.85-1.14v1.42Zm-.57-1.14.57,1.14.85-1.14Z"/><line class="cls-10" x1="1030.16" y1="528.86" x2="1030.16" y2="527.44"/><path d="M1030.16,369.13h-1.42l.57.85Zm-.85-1.14.85,1.14h-1.42Zm.85-.29-.85.29.85,1.14Z"/><path class="cls-14" d="M1030.16,369.13h-1.42l.57.85Zm-.85-1.14.85,1.14h-1.42Zm.85-.29-.85.29.85,1.14Z"/><path d="M1030.16,369.13l1.14.85.28-.85Zm0,1.42v-1.42l1.14.85Zm-.85-.57.85.57v-1.42Z"/><path class="cls-14" d="M1030.16,369.13l1.14.85.28-.85Zm0,1.42v-1.42l1.14.85Zm-.85-.57.85.57v-1.42Z"/><path d="M1031.3,368l-1.14,1.14V367.7Zm.28,1.14-.28-1.14-1.14,1.14Z"/><path class="cls-14" d="M1031.3,368l-1.14,1.14V367.7Zm.28,1.14-.28-1.14-1.14,1.14Z"/><line class="cls-10" x1="1030.16" y1="370.55" x2="1030.16" y2="371.97"/><text class="cls-16" transform="translate(1029.02 458.38) rotate(-90)">4,00</text><text class="cls-5" transform="translate(892.03 608.45) rotate(180)">Estructura de</text><text class="cls-5" transform="translate(882.08 598.21) rotate(180)">madera de</text><text class="cls-5" transform="translate(871.85 588.27) rotate(180)">cubierta</text><text class="cls-5" transform="translate(901.41 578.03) rotate(180)">existente (no se</text><text class="cls-5" transform="translate(876.96 567.8) rotate(180)">demuele)</text><polygon points="818.41 563.25 816.71 555.29 820.97 562.12 818.41 563.25"/><polygon class="cls-14" points="818.41 563.25 816.71 555.29 820.97 562.12 818.41 563.25"/><polyline class="cls-10" points="819.83 562.68 837.74 606.74 884.63 606.74"/></g><g class="cls-20"><text class="cls-12" transform="translate(1177.1 442.17) rotate(90)">Línea Municipal</text></g><g class="cls-20"><line class="cls-8" x1="1174.83" y1="433.65" x2="1174.83" y2="439.05"/><line class="cls-13" x1="1174.83" y1="443.59" x2="1174.83" y2="443.59"/><line class="cls-8" x1="1174.83" y1="448.43" x2="1174.83" y2="458.09"/><line class="cls-13" x1="1174.83" y1="462.92" x2="1174.83" y2="462.92"/><line class="cls-8" x1="1174.83" y1="467.75" x2="1174.83" y2="477.42"/><line class="cls-13" x1="1174.83" y1="482.25" x2="1174.83" y2="482.25"/><line class="cls-8" x1="1174.83" y1="487.08" x2="1174.83" y2="496.46"/><line class="cls-13" x1="1174.83" y1="501.29" x2="1174.83" y2="501.29"/><line class="cls-8" x1="1174.83" y1="506.12" x2="1174.83" y2="511.52"/><text class="cls-5" transform="translate(1073.65 608.16) rotate(180)">Sector de</text><text class="cls-5" transform="translate(1093.83 598.21) rotate(180)">mampostería a</text><text class="cls-5" transform="translate(1070.23 587.98) rotate(180)">construir</text><polygon points="985.54 527.44 982.69 519.77 987.81 526.02 985.54 527.44"/><polygon class="cls-14" points="985.54 527.44 982.69 519.77 987.81 526.02 985.54 527.44"/><polyline class="cls-10" points="986.67 526.59 1033.29 606.74 1080.18 606.74"/><line class="cls-10" x1="809.03" y1="566.66" x2="852.23" y2="566.66"/><line class="cls-10" x1="809.03" y1="369.13" x2="852.23" y2="369.13"/><line class="cls-10" x1="848.25" y1="563.82" x2="848.25" y2="371.97"/><path d="M848.25,566.66h1.42l-.28-.85Zm1.14,1.14-1.14-1.14h1.42Zm-1.14.29,1.14-.29-1.14-1.14Z"/><path class="cls-14" d="M848.25,566.66h1.42l-.28-.85Zm1.14,1.14-1.14-1.14h1.42Zm-1.14.29,1.14-.29-1.14-1.14Z"/><path d="M848.25,566.66l-.85-.85-.57.85Zm0-1.42v1.42l-.85-.85Zm1.14.57-1.14-.57v1.42Z"/><path class="cls-14" d="M848.25,566.66l-.85-.85-.57.85Zm0-1.42v1.42l-.85-.85Zm1.14.57-1.14-.57v1.42Z"/><path d="M847.4,567.8l.85-1.14v1.43Zm-.57-1.14.57,1.14.85-1.14Z"/><path class="cls-14" d="M847.4,567.8l.85-1.14v1.43Zm-.57-1.14.57,1.14.85-1.14Z"/><line class="cls-10" x1="848.25" y1="565.24" x2="848.25" y2="563.82"/><path d="M848.25,369.13h-1.42l.57.85ZM847.4,368l.85,1.14h-1.42Zm.85-.29-.85.29.85,1.14Z"/><path class="cls-14" d="M848.25,369.13h-1.42l.57.85ZM847.4,368l.85,1.14h-1.42Zm.85-.29-.85.29.85,1.14Z"/><path d="M848.25,369.13l1.14.85.28-.85Zm0,1.42v-1.42l1.14.85Zm-.85-.57.85.57v-1.42Z"/><path class="cls-14" d="M848.25,369.13l1.14.85.28-.85Zm0,1.42v-1.42l1.14.85Zm-.85-.57.85.57v-1.42Z"/><path d="M849.39,368l-1.14,1.14V367.7Zm.28,1.14-.28-1.14-1.14,1.14Z"/><path class="cls-14" d="M849.39,368l-1.14,1.14V367.7Zm.28,1.14-.28-1.14-1.14,1.14Z"/><line class="cls-10" x1="848.25" y1="370.55" x2="848.25" y2="371.97"/><text class="cls-16" transform="translate(847.12 476.57) rotate(-90)">4,90</text><line class="cls-7" x1="1174.83" y1="369.13" x2="1174.83" y2="362.02"/><line class="cls-7" x1="1164.6" y1="369.13" x2="1164.6" y2="362.02"/></g><g class="cls-22"><polyline class="cls-7" points="1767.44 361.74 1767.44 1811.86 -282.97 1811.86 -282.97 361.74 1767.44 361.74"/></g></g></g><path class="cls-23" d="M1519,16V595.57H16V16H1519m16-16H0V611.57H1535V0Z"/></svg>