<svg id="Capa_1" data-name="Capa 1" xmlns="http://www.w3.org/2000/svg" xmlns:xlink="http://www.w3.org/1999/xlink" viewBox="0 0 1535 611.57"><defs><style>.cls-1,.cls-10,.cls-11,.cls-14,.cls-18,.cls-7,.cls-8,.cls-9{fill:none;}.cls-2{clip-path:url(#clip-path);}.cls-3{clip-path:url(#clip-path-2);}.cls-4{clip-path:url(#clip-path-3);}.cls-5{clip-path:url(#clip-path-4);}.cls-6{clip-path:url(#clip-path-5);}.cls-10,.cls-11,.cls-14,.cls-18,.cls-7,.cls-8,.cls-9{stroke:#000;stroke-miterlimit:10;}.cls-10,.cls-11,.cls-14,.cls-7,.cls-8,.cls-9{stroke-linecap:square;}.cls-7{stroke-width:0.3px;}.cls-18,.cls-8{stroke-width:0.6px;}.cls-9{stroke-width:1.4px;}.cls-10{stroke-width:0.1px;}.cls-11{stroke-width:0.9px;}.cls-12{font-size:28.14px;}.cls-12,.cls-13,.cls-15,.cls-17{font-family:ArialMT, Arial;}.cls-13{font-size:8.44px;}.cls-14{stroke-width:0;}.cls-15{font-size:9.01px;}.cls-16{clip-path:url(#clip-path-6);}.cls-17{font-size:5.63px;}.cls-18{stroke-linecap:round;}.cls-19{clip-path:url(#clip-path-7);}.cls-20{fill:#d0cfcd;}</style><clipPath id="clip-path"><rect class="cls-1" y="-618.12" width="1535" height="590.88"/></clipPath><clipPath id="clip-path-2"><rect class="cls-1" x="-364.83" y="-1550.51" width="2393.19" height="1691.15"/></clipPath><clipPath id="clip-path-3"><rect class="cls-1" y="0.35" width="1535" height="590.88"/></clipPath><clipPath id="clip-path-4"><rect class="cls-1" x="-364.83" y="-346.05" width="2393.19" height="1691.15"/></clipPath><clipPath id="clip-path-5"><polyline class="cls-1" points="1560.53 594.46 1560.53 -5.26 -9.54 -5.26 -9.54 594.46 1560.53 594.46"/></clipPath><clipPath id="clip-path-6"><polyline class="cls-1" points="1560.53 1174 1560.53 595.03 -9.54 595.03 -9.54 1174 1560.53 1174"/></clipPath><clipPath id="clip-path-7"><polyline class="cls-1" points="2022.68 1339.42 2022.68 -339.51 -357.15 -339.51 -357.15 1339.42 2022.68 1339.42"/></clipPath></defs><title>inicio-obra-2</title><g class="cls-4"><g class="cls-5"><g class="cls-6"><line class="cls-7" x1="1359.29" y1="508.91" x2="1198.14" y2="508.91"/><line class="cls-8" x1="1198.14" y1="515.16" x2="718.65" y2="515.16"/><line class="cls-8" x1="985.54" y1="502.94" x2="718.65" y2="502.94"/><line class="cls-9" x1="1198.14" y1="508.91" x2="985.54" y2="508.91"/><line class="cls-10" x1="1198.14" y1="501.8" x2="991.5" y2="501.8"/><line class="cls-10" x1="1198.14" y1="497.82" x2="991.5" y2="497.82"/><line class="cls-10" x1="1198.14" y1="493.84" x2="991.5" y2="493.84"/><line class="cls-10" x1="1198.14" y1="489.87" x2="991.5" y2="489.87"/><line class="cls-10" x1="1198.14" y1="485.6" x2="991.5" y2="485.6"/><line class="cls-10" x1="1198.14" y1="481.62" x2="991.5" y2="481.62"/><line class="cls-10" x1="1198.14" y1="477.64" x2="991.5" y2="477.64"/><line class="cls-10" x1="1198.14" y1="473.66" x2="991.5" y2="473.66"/><line class="cls-10" x1="1198.14" y1="469.68" x2="991.5" y2="469.68"/><line class="cls-10" x1="1198.14" y1="465.71" x2="991.5" y2="465.71"/><line class="cls-10" x1="1198.14" y1="461.44" x2="991.5" y2="461.44"/><line class="cls-10" x1="1198.14" y1="457.46" x2="991.5" y2="457.46"/><line class="cls-10" x1="1198.14" y1="453.48" x2="991.5" y2="453.48"/><line class="cls-10" x1="1198.14" y1="449.5" x2="991.5" y2="449.5"/><line class="cls-10" x1="1198.14" y1="445.53" x2="991.5" y2="445.53"/><line class="cls-10" x1="1198.14" y1="441.26" x2="991.5" y2="441.26"/><line class="cls-10" x1="1198.14" y1="437.28" x2="991.5" y2="437.28"/><line class="cls-10" x1="1198.14" y1="433.3" x2="1079.61" y2="433.3"/><line class="cls-10" x1="1064.55" y1="433.3" x2="991.5" y2="433.3"/><line class="cls-10" x1="1075.35" y1="433.3" x2="1072.22" y2="433.3"/><line class="cls-10" x1="1198.14" y1="429.32" x2="1081.89" y2="429.32"/><line class="cls-10" x1="1062.28" y1="429.32" x2="991.5" y2="429.32"/><line class="cls-10" x1="1079.61" y1="429.32" x2="1072.22" y2="429.32"/><line class="cls-10" x1="1198.14" y1="425.35" x2="1082.17" y2="425.35"/><line class="cls-10" x1="1061.99" y1="425.35" x2="991.5" y2="425.35"/><line class="cls-10" x1="1080.75" y1="425.35" x2="1072.22" y2="425.35"/><line class="cls-10" x1="1198.14" y1="421.37" x2="1080.47" y2="421.37"/><line class="cls-10" x1="1063.7" y1="421.37" x2="991.5" y2="421.37"/><line class="cls-10" x1="1076.77" y1="421.37" x2="1072.22" y2="421.37"/><line class="cls-10" x1="1198.14" y1="417.1" x2="1075.64" y2="417.1"/><line class="cls-10" x1="1068.53" y1="417.1" x2="991.5" y2="417.1"/><line class="cls-10" x1="1072.79" y1="417.1" x2="1072.22" y2="417.1"/><line class="cls-10" x1="1198.14" y1="413.12" x2="991.5" y2="413.12"/><line class="cls-10" x1="1198.14" y1="409.14" x2="991.5" y2="409.14"/><line class="cls-10" x1="1198.14" y1="405.17" x2="991.5" y2="405.17"/><line class="cls-10" x1="1198.14" y1="401.19" x2="991.5" y2="401.19"/><line class="cls-10" x1="1198.14" y1="396.92" x2="991.5" y2="396.92"/><line class="cls-10" x1="1198.14" y1="392.94" x2="991.5" y2="392.94"/><line class="cls-10" x1="1198.14" y1="388.96" x2="991.5" y2="388.96"/><line class="cls-10" x1="1198.14" y1="384.99" x2="991.5" y2="384.99"/><line class="cls-10" x1="1198.14" y1="381.01" x2="991.5" y2="381.01"/><line class="cls-10" x1="1198.14" y1="377.03" x2="991.5" y2="377.03"/><line class="cls-10" x1="1198.14" y1="372.76" x2="991.5" y2="372.76"/><line class="cls-10" x1="1198.14" y1="368.78" x2="991.5" y2="368.78"/><line class="cls-10" x1="1198.14" y1="364.81" x2="991.5" y2="364.81"/><line class="cls-10" x1="1198.14" y1="360.83" x2="991.5" y2="360.83"/><line class="cls-10" x1="1198.14" y1="356.85" x2="991.5" y2="356.85"/><line class="cls-10" x1="1198.14" y1="352.58" x2="991.5" y2="352.58"/><line class="cls-10" x1="1198.14" y1="348.6" x2="991.5" y2="348.6"/><line class="cls-10" x1="1145.56" y1="344.62" x2="991.5" y2="344.62"/><line class="cls-10" x1="1145.56" y1="340.65" x2="991.5" y2="340.65"/><line class="cls-10" x1="1145.56" y1="336.67" x2="991.5" y2="336.67"/><line class="cls-10" x1="1145.56" y1="332.69" x2="991.5" y2="332.69"/><line class="cls-10" x1="1145.56" y1="328.42" x2="991.5" y2="328.42"/><line class="cls-10" x1="1145.56" y1="324.44" x2="991.5" y2="324.44"/><line class="cls-10" x1="1145.56" y1="320.47" x2="991.5" y2="320.47"/><line class="cls-10" x1="1145.56" y1="316.49" x2="991.5" y2="316.49"/><line class="cls-10" x1="1145.56" y1="312.51" x2="991.5" y2="312.51"/><line class="cls-10" x1="1145.56" y1="308.24" x2="991.5" y2="308.24"/><line class="cls-10" x1="1145.56" y1="304.26" x2="991.5" y2="304.26"/><line class="cls-10" x1="1145.56" y1="300.29" x2="991.5" y2="300.29"/><line class="cls-10" x1="1145.56" y1="296.31" x2="991.5" y2="296.31"/><line class="cls-10" x1="1145.56" y1="292.33" x2="991.5" y2="292.33"/><line class="cls-10" x1="1145.56" y1="288.35" x2="991.5" y2="288.35"/><line class="cls-10" x1="1145.56" y1="284.08" x2="1078.19" y2="284.08"/><line class="cls-10" x1="1065.97" y1="284.08" x2="991.5" y2="284.08"/><line class="cls-10" x1="1074.21" y1="284.08" x2="1072.22" y2="284.08"/><line class="cls-10" x1="1145.56" y1="280.11" x2="1081.32" y2="280.11"/><line class="cls-10" x1="1062.85" y1="280.11" x2="991.5" y2="280.11"/><line class="cls-10" x1="1078.19" y1="280.11" x2="1072.22" y2="280.11"/><line class="cls-10" x1="1145.56" y1="276.13" x2="1082.17" y2="276.13"/><line class="cls-10" x1="1061.99" y1="276.13" x2="991.5" y2="276.13"/><line class="cls-10" x1="1082.17" y1="276.13" x2="1072.22" y2="276.13"/><line class="cls-10" x1="1145.56" y1="272.15" x2="1081.32" y2="272.15"/><line class="cls-10" x1="1062.85" y1="272.15" x2="991.5" y2="272.15"/><line class="cls-10" x1="1077.91" y1="272.15" x2="1072.22" y2="272.15"/><line class="cls-10" x1="1145.56" y1="268.17" x2="1077.91" y2="268.17"/><line class="cls-10" x1="1066.26" y1="268.17" x2="991.5" y2="268.17"/><line class="cls-10" x1="1073.93" y1="268.17" x2="1072.22" y2="268.17"/><line class="cls-10" x1="1145.56" y1="263.9" x2="991.5" y2="263.9"/><line class="cls-10" x1="1145.56" y1="259.93" x2="991.5" y2="259.93"/><line class="cls-10" x1="1145.56" y1="255.95" x2="991.5" y2="255.95"/><line class="cls-10" x1="1145.56" y1="251.97" x2="991.5" y2="251.97"/><line class="cls-10" x1="1145.56" y1="247.99" x2="991.5" y2="247.99"/><line class="cls-10" x1="1145.56" y1="244.01" x2="991.5" y2="244.01"/><line class="cls-10" x1="1145.56" y1="239.75" x2="991.5" y2="239.75"/><line class="cls-10" x1="1145.56" y1="235.77" x2="991.5" y2="235.77"/><line class="cls-10" x1="1145.56" y1="231.79" x2="991.5" y2="231.79"/><line class="cls-10" x1="1145.56" y1="227.81" x2="991.5" y2="227.81"/><line class="cls-10" x1="1145.56" y1="223.83" x2="991.5" y2="223.83"/><line class="cls-10" x1="1145.56" y1="219.56" x2="991.5" y2="219.56"/><line class="cls-10" x1="1145.56" y1="215.59" x2="991.5" y2="215.59"/><line class="cls-10" x1="1145.56" y1="211.61" x2="991.5" y2="211.61"/><line class="cls-10" x1="1145.56" y1="207.63" x2="991.5" y2="207.63"/><line class="cls-10" x1="1145.56" y1="203.65" x2="991.5" y2="203.65"/><line class="cls-10" x1="1145.56" y1="199.67" x2="991.5" y2="199.67"/><line class="cls-10" x1="1145.56" y1="195.41" x2="991.5" y2="195.41"/><line class="cls-10" x1="1145.56" y1="191.43" x2="991.5" y2="191.43"/><line class="cls-9" x1="1198.14" y1="502.94" x2="991.5" y2="502.94"/><line class="cls-8" x1="985.54" y1="194.55" x2="718.65" y2="194.55"/><line class="cls-8" x1="985.54" y1="200.81" x2="718.65" y2="200.81"/><line class="cls-9" x1="1145.56" y1="182.62" x2="985.54" y2="182.62"/><line class="cls-9" x1="1145.56" y1="188.58" x2="991.5" y2="188.58"/><line class="cls-8" x1="985.54" y1="182.62" x2="718.65" y2="182.62"/><line class="cls-8" x1="147.35" y1="515.16" x2="147.35" y2="22.88"/><line class="cls-8" x1="159.29" y1="502.94" x2="159.29" y2="35.1"/><line class="cls-8" x1="147.35" y1="22.88" x2="867.58" y2="22.88"/><line class="cls-8" x1="159.29" y1="35.1" x2="563.46" y2="35.1"/><line class="cls-7" x1="867.58" y1="22.88" x2="1121.4" y2="22.88"/><line class="cls-8" x1="1121.4" y1="22.88" x2="1278.57" y2="22.88"/><polyline class="cls-7" points="1278.57 22.88 1359.29 22.88 1359.29 508.91"/><line class="cls-8" x1="1278.57" y1="22.88" x2="1278.57" y2="345.76"/><line class="cls-8" x1="1198.14" y1="508.91" x2="1198.14" y2="515.16"/><line class="cls-11" x1="1198.14" y1="339.79" x2="1198.14" y2="502.94"/><line class="cls-9" x1="1145.56" y1="182.62" x2="1145.56" y2="188.58"/><line class="cls-11" x1="1145.56" y1="188.58" x2="1145.56" y2="345.76"/><line class="cls-8" x1="718.65" y1="194.55" x2="718.65" y2="315.63"/><line class="cls-8" x1="563.46" y1="22.88" x2="563.46" y2="378.16"/><line class="cls-8" x1="1198.14" y1="345.76" x2="1278.57" y2="345.76"/><line class="cls-11" x1="1145.56" y1="339.79" x2="1198.14" y2="339.79"/><line class="cls-8" x1="1121.4" y1="182.62" x2="1121.4" y2="22.88"/><line class="cls-8" x1="867.58" y1="182.62" x2="867.58" y2="22.88"/><line class="cls-8" x1="718.65" y1="378.16" x2="563.46" y2="378.16"/><line class="cls-8" x1="718.65" y1="502.94" x2="718.65" y2="515.16"/><text class="cls-12" transform="translate(1386.01 504.93) rotate(-90)">PLANTA DE TECHO</text><text class="cls-12" transform="translate(1420.12 504.93) rotate(-90)">PROPUESTA</text><line class="cls-7" x1="1121.4" y1="182.62" x2="867.58" y2="22.88"/><line class="cls-7" x1="867.58" y1="182.62" x2="1121.4" y2="22.88"/><line class="cls-8" x1="147.35" y1="515.16" x2="718.65" y2="515.16"/><polyline class="cls-8" points="159.29 502.94 718.65 502.94 718.65 194.55"/><line class="cls-9" x1="985.54" y1="508.91" x2="985.54" y2="182.62"/><line class="cls-9" x1="991.5" y1="502.94" x2="991.5" y2="188.58"/><path class="cls-8" d="M1072.08,265.89A10.09,10.09,0,1,0,1082.17,276a10.09,10.09,0,0,0-10.09-10.09"/><polyline class="cls-7" points="1082.17 276.13 1072.22 286.36 1072.22 266.18 1082.17 276.13"/><path class="cls-8" d="M1072.08,416.53a10.09,10.09,0,1,0,10.09,10.09,10.09,10.09,0,0,0-10.09-10.09"/><polyline class="cls-7" points="1082.17 426.77 1072.22 436.71 1072.22 416.53 1082.17 426.77"/><path class="cls-8" d="M898.7,265.89A10.09,10.09,0,1,0,908.79,276a10.09,10.09,0,0,0-10.09-10.09"/><polyline class="cls-7" points="888.9 276.13 898.85 286.36 898.85 266.18 888.9 276.13"/><path class="cls-8" d="M898.7,416.53a10.09,10.09,0,1,0,10.09,10.09,10.09,10.09,0,0,0-10.09-10.09"/><polyline class="cls-7" points="888.9 426.77 898.85 436.71 898.85 416.53 888.9 426.77"/><line class="cls-11" x1="1198.14" y1="345.76" x2="1145.56" y2="345.76"/><text class="cls-13" transform="translate(1127.36 583.38) rotate(-90)">Desmontaje de</text><text class="cls-13" transform="translate(1137.31 546.14) rotate(-90)">tejas,</text><text class="cls-13" transform="translate(1147.26 584.23) rotate(-90)">manteniendo la</text><text class="cls-13" transform="translate(1157.49 575.7) rotate(-90)">estrcutura de</text><text class="cls-13" transform="translate(1167.44 555.24) rotate(-90)">madera</text><text class="cls-13" transform="translate(1177.67 558.08) rotate(-90)">existene</text><polygon points="1166.87 463.43 1172.56 457.46 1169.15 464.85 1166.87 463.43"/><polygon class="cls-14" points="1166.87 463.43 1172.56 457.46 1169.15 464.85 1166.87 463.43"/><polyline class="cls-7" points="1168.01 464.29 1128.79 522.27 1128.79 569.16"/><text class="cls-13" transform="translate(1079.05 565.47) rotate(-90)">Cenefa de</text><text class="cls-13" transform="translate(1089 549.55) rotate(-90)">chapa</text><polygon points="1110.03 507.49 1117.98 505.5 1111.16 510.05 1110.03 507.49"/><polygon class="cls-14" points="1110.03 507.49 1117.98 505.5 1111.16 510.05 1110.03 507.49"/><polyline class="cls-7" points="1110.6 508.62 1080.47 522.27 1080.47 569.16"/><line class="cls-8" x1="718.65" y1="194.55" x2="718.65" y2="182.62"/><text class="cls-13" transform="translate(1013.1 570.3) rotate(-90)">Cubierta de</text><text class="cls-13" transform="translate(1023.05 586.5) rotate(-90)">chapa ondulada</text><text class="cls-13" transform="translate(1033.29 572.86) rotate(-90)">s/correas de</text><text class="cls-13" transform="translate(1043.52 579.4) rotate(-90)">chapa 50x100</text><polygon points="1052.61 463.43 1058.3 457.46 1054.89 464.85 1052.61 463.43"/><polygon class="cls-14" points="1052.61 463.43 1058.3 457.46 1054.89 464.85 1052.61 463.43"/><polyline class="cls-7" points="1053.75 464.29 1014.53 522.27 1014.53 569.16"/><line class="cls-7" x1="710.4" y1="515.16" x2="691.93" y2="515.16"/><line class="cls-7" x1="710.4" y1="182.62" x2="691.93" y2="182.62"/><line class="cls-7" x1="695.91" y1="512.32" x2="695.91" y2="185.46"/><path d="M695.91,515.16h1.42l-.57-1.14Zm.85.85-.85-.85h1.42Zm-.85.57.85-.57-.85-.85Z"/><path class="cls-14" d="M695.91,515.16h1.42l-.57-1.14Zm.85.85-.85-.85h1.42Zm-.85.57.85-.57-.85-.85Z"/><path d="M695.91,515.16,694.77,514l-.28,1.14Zm0-1.42v1.42L694.77,514Zm.85.28-.85-.28v1.42Z"/><path class="cls-14" d="M695.91,515.16,694.77,514l-.28,1.14Zm0-1.42v1.42L694.77,514Zm.85.28-.85-.28v1.42Z"/><path d="M694.77,516l1.14-.85v1.42Zm-.28-.85.28.85,1.14-.85Z"/><path class="cls-14" d="M694.77,516l1.14-.85v1.42Zm-.28-.85.28.85,1.14-.85Z"/><line class="cls-7" x1="695.91" y1="513.74" x2="695.91" y2="512.32"/><path d="M695.91,182.62h-1.42l.28.85Zm-1.14-1.14,1.14,1.14h-1.42Zm1.14-.29-1.14.29,1.14,1.14Z"/><path class="cls-14" d="M695.91,182.62h-1.42l.28.85Zm-1.14-1.14,1.14,1.14h-1.42Zm1.14-.29-1.14.29,1.14,1.14Z"/><path d="M695.91,182.62l.85.85.57-.85Zm0,1.42v-1.42l.85.85Zm-1.14-.57,1.14.57v-1.42Z"/><path class="cls-14" d="M695.91,182.62l.85.85.57-.85Zm0,1.42v-1.42l.85.85Zm-1.14-.57,1.14.57v-1.42Z"/><path d="M696.76,181.48l-.85,1.14v-1.43Zm.57,1.14-.57-1.14-.85,1.14Z"/><path class="cls-14" d="M696.76,181.48l-.85,1.14v-1.43Zm.57,1.14-.57-1.14-.85,1.14Z"/><line class="cls-7" x1="695.91" y1="184.04" x2="695.91" y2="185.46"/><text class="cls-15" transform="translate(694.49 357.7) rotate(-90)">8,25</text><line class="cls-7" x1="1198.14" y1="489.01" x2="1198.14" y2="471.67"/><line class="cls-7" x1="985.54" y1="494.98" x2="985.54" y2="471.67"/><line class="cls-7" x1="1195.3" y1="475.65" x2="988.38" y2="475.65"/><path d="M1198.14,475.65v-1.42l-1.14.57Zm.85-.85-.85.85v-1.42Zm.57.85-.57-.85-.85.85Z"/><path class="cls-14" d="M1198.14,475.65v-1.42l-1.14.57Zm.85-.85-.85.85v-1.42Zm.57.85-.57-.85-.85.85Z"/><path d="M1198.14,475.65l-1.14,1.14,1.14.28Zm-1.42,0h1.42l-1.14,1.14Zm.28-.85-.28.85h1.42Z"/><path class="cls-14" d="M1198.14,475.65l-1.14,1.14,1.14.28Zm-1.42,0h1.42l-1.14,1.14Zm.28-.85-.28.85h1.42Z"/><path d="M1199,476.79l-.85-1.14h1.42Zm-.85.28.85-.28-.85-1.14Z"/><path class="cls-14" d="M1199,476.79l-.85-1.14h1.42Zm-.85.28.85-.28-.85-1.14Z"/><line class="cls-7" x1="1196.72" y1="475.65" x2="1195.3" y2="475.65"/><path d="M985.54,475.65v1.42l.85-.28Zm-1.14,1.14,1.14-1.14v1.42Zm-.29-1.14.29,1.14,1.14-1.14Z"/><path class="cls-14" d="M985.54,475.65v1.42l.85-.28Zm-1.14,1.14,1.14-1.14v1.42Zm-.29-1.14.29,1.14,1.14-1.14Z"/><path d="M985.54,475.65l.85-.85-.85-.57Zm1.42,0h-1.42l.85-.85Zm-.57,1.14.57-1.14h-1.42Z"/><path class="cls-14" d="M985.54,475.65l.85-.85-.85-.57Zm1.42,0h-1.42l.85-.85Zm-.57,1.14.57-1.14h-1.42Z"/><path d="M984.4,474.8l1.14.85h-1.43Zm1.14-.57-1.14.57,1.14.85Z"/><path class="cls-14" d="M984.4,474.8l1.14.85h-1.43Zm1.14-.57-1.14.57,1.14.85Z"/><line class="cls-7" x1="986.96" y1="475.65" x2="988.38" y2="475.65"/><text class="cls-15" transform="translate(1100.36 477.08) rotate(180)">5,28</text><line class="cls-9" x1="1198.14" y1="508.91" x2="1198.14" y2="502.94"/><line class="cls-7" x1="977.29" y1="508.91" x2="962.8" y2="508.91"/><line class="cls-7" x1="977.29" y1="182.62" x2="962.8" y2="182.62"/><line class="cls-7" x1="966.78" y1="506.35" x2="966.78" y2="185.46"/><path d="M966.78,508.91h1.42l-.29-.85Zm1.13,1.14-1.13-1.14h1.42Zm-1.13.28,1.13-.28-1.13-1.14Z"/><path class="cls-14" d="M966.78,508.91h1.42l-.29-.85Zm1.13,1.14-1.13-1.14h1.42Zm-1.13.28,1.13-.28-1.13-1.14Z"/><path d="M966.78,508.91l-1.14-.85-.28.85Zm0-1.14v1.14l-1.14-.85Zm1.13.29-1.13-.29v1.14Z"/><path class="cls-14" d="M966.78,508.91l-1.14-.85-.28.85Zm0-1.14v1.14l-1.14-.85Zm1.13.29-1.13-.29v1.14Z"/><path d="M965.64,510.05l1.14-1.14v1.42Zm-.28-1.14.28,1.14,1.14-1.14Z"/><path class="cls-14" d="M965.64,510.05l1.14-1.14v1.42Zm-.28-1.14.28,1.14,1.14-1.14Z"/><line class="cls-7" x1="966.78" y1="507.77" x2="966.78" y2="506.35"/><path d="M966.78,182.62h-1.42l.28.85Zm-1.14-1.14,1.14,1.14h-1.42Zm1.14-.29-1.14.29,1.14,1.14Z"/><path class="cls-14" d="M966.78,182.62h-1.42l.28.85Zm-1.14-1.14,1.14,1.14h-1.42Zm1.14-.29-1.14.29,1.14,1.14Z"/><path d="M966.78,182.62l1.13.85.29-.85Zm0,1.42v-1.42l1.13.85Zm-1.14-.57,1.14.57v-1.42Z"/><path class="cls-14" d="M966.78,182.62l1.13.85.29-.85Zm0,1.42v-1.42l1.13.85Zm-1.14-.57,1.14.57v-1.42Z"/><path d="M967.91,181.48l-1.13,1.14v-1.43Zm.29,1.14-.29-1.14-1.13,1.14Z"/><path class="cls-14" d="M967.91,181.48l-1.13,1.14v-1.43Zm.29,1.14-.29-1.14-1.13,1.14Z"/><line class="cls-7" x1="966.78" y1="184.04" x2="966.78" y2="185.46"/><text class="cls-15" transform="translate(965.64 354.57) rotate(-90)">8,10</text><text class="cls-13" transform="translate(1135.32 163.86) rotate(-90)">4 Chapa Trapezoidal azul 5,50</text><text class="cls-13" transform="translate(1155.79 163.86) rotate(-90)">4 Chapa Trapezoidal azul 4,00</text><line class="cls-7" x1="1206.1" y1="508.91" x2="1216.61" y2="508.91"/><line class="cls-7" x1="1206.1" y1="339.79" x2="1216.61" y2="339.79"/><line class="cls-7" x1="1212.63" y1="506.35" x2="1212.63" y2="342.64"/><path d="M1212.63,508.91h1.42l-.28-.85Zm1.14,1.14-1.14-1.14h1.42Zm-1.14.28,1.14-.28-1.14-1.14Z"/><path class="cls-14" d="M1212.63,508.91h1.42l-.28-.85Zm1.14,1.14-1.14-1.14h1.42Zm-1.14.28,1.14-.28-1.14-1.14Z"/><path d="M1212.63,508.91l-.85-.85-.57.85Zm0-1.14v1.14l-.85-.85Zm1.14.29-1.14-.29v1.14Z"/><path class="cls-14" d="M1212.63,508.91l-.85-.85-.57.85Zm0-1.14v1.14l-.85-.85Zm1.14.29-1.14-.29v1.14Z"/><path d="M1211.78,510.05l.85-1.14v1.42Zm-.57-1.14.57,1.14.85-1.14Z"/><path class="cls-14" d="M1211.78,510.05l.85-1.14v1.42Zm-.57-1.14.57,1.14.85-1.14Z"/><line class="cls-7" x1="1212.63" y1="507.77" x2="1212.63" y2="506.35"/><path d="M1212.63,339.79h-1.42l.57.86Zm-.85-1.13.85,1.13h-1.42Zm.85-.29-.85.29.85,1.13Z"/><path class="cls-14" d="M1212.63,339.79h-1.42l.57.86Zm-.85-1.13.85,1.13h-1.42Zm.85-.29-.85.29.85,1.13Z"/><path d="M1212.63,339.79l1.14.86.28-.86Zm0,1.42v-1.42l1.14.86Zm-.85-.56.85.56v-1.42Z"/><path class="cls-14" d="M1212.63,339.79l1.14.86.28-.86Zm0,1.42v-1.42l1.14.86Zm-.85-.56.85.56v-1.42Z"/><path d="M1213.77,338.66l-1.14,1.13v-1.42Zm.28,1.13-.28-1.13-1.14,1.13Z"/><path class="cls-14" d="M1213.77,338.66l-1.14,1.13v-1.42Zm.28,1.13-.28-1.13-1.14,1.13Z"/><line class="cls-7" x1="1212.63" y1="341.21" x2="1212.63" y2="342.64"/><text class="cls-15" transform="translate(1211.5 433.02) rotate(-90)">4,20</text><line class="cls-7" x1="1206.1" y1="339.79" x2="1216.61" y2="339.79"/><line class="cls-7" x1="1153.8" y1="182.62" x2="1216.61" y2="182.62"/><line class="cls-7" x1="1212.63" y1="336.95" x2="1212.63" y2="185.46"/><path d="M1212.63,339.79h1.42l-.28-1.13Zm1.14.86-1.14-.86h1.42Zm-1.14.56,1.14-.56-1.14-.86Z"/><path class="cls-14" d="M1212.63,339.79h1.42l-.28-1.13Zm1.14.86-1.14-.86h1.42Zm-1.14.56,1.14-.56-1.14-.86Z"/><path d="M1212.63,339.79l-.85-1.13-.57,1.13Zm0-1.42v1.42l-.85-1.13Zm1.14.29-1.14-.29v1.42Z"/><path class="cls-14" d="M1212.63,339.79l-.85-1.13-.57,1.13Zm0-1.42v1.42l-.85-1.13Zm1.14.29-1.14-.29v1.42Z"/><path d="M1211.78,340.65l.85-.86v1.42Zm-.57-.86.57.86.85-.86Z"/><path class="cls-14" d="M1211.78,340.65l.85-.86v1.42Zm-.57-.86.57.86.85-.86Z"/><line class="cls-7" x1="1212.63" y1="338.37" x2="1212.63" y2="336.95"/><path d="M1212.63,182.62h-1.42l.57.85Zm-.85-1.14.85,1.14h-1.42Zm.85-.29-.85.29.85,1.14Z"/><path class="cls-14" d="M1212.63,182.62h-1.42l.57.85Zm-.85-1.14.85,1.14h-1.42Zm.85-.29-.85.29.85,1.14Z"/><path d="M1212.63,182.62l1.14.85.28-.85Zm0,1.42v-1.42l1.14.85Zm-.85-.57.85.57v-1.42Z"/><path class="cls-14" d="M1212.63,182.62l1.14.85.28-.85Zm0,1.42v-1.42l1.14.85Zm-.85-.57.85.57v-1.42Z"/><path d="M1213.77,181.48l-1.14,1.14v-1.43Zm.28,1.14-.28-1.14-1.14,1.14Z"/><path class="cls-14" d="M1213.77,181.48l-1.14,1.14v-1.43Zm.28,1.14-.28-1.14-1.14,1.14Z"/><line class="cls-7" x1="1212.63" y1="184.04" x2="1212.63" y2="185.46"/><text class="cls-15" transform="translate(1211.5 269.87) rotate(-90)">3,90</text></g><g class="cls-16"><text class="cls-17" transform="translate(1366.68 616.35) rotate(-90)">Línea Municipal</text><line class="cls-8" x1="1359.29" y1="609.81" x2="1359.29" y2="600.15"/><line class="cls-18" x1="1359.29" y1="595.31" x2="1359.29" y2="595.31"/></g><g class="cls-19"><polyline class="cls-9" points="1767.44 -265.33 1767.44 1184.8 -282.97 1184.8 -282.97 -265.33 1767.44 -265.33"/></g></g></g><path class="cls-20" d="M1519,16V595.57H16V16H1519m16-16H0V611.57H1535V0Z"/></svg>